<svg width="173" height="173" viewBox="0 0 173 173" fill="none" xmlns="http://www.w3.org/2000/svg">
<path d="M105.649 72.4856C106.121 72.4856 106.568 72.3055 106.909 71.9774C112.936 66.2183 116.376 58.1268 116.346 49.7773C116.327 35.1207 105.91 22.4215 91.5784 19.5818C91.5162 19.5671 91.467 19.5584 91.4178 19.5506C89.4976 19.1844 87.5583 19 85.6372 19C70.9465 19 58.2891 29.5252 55.5403 44.026C53.4561 55.0195 57.4925 66.2919 66.0738 73.4423C66.3983 73.7063 66.7944 73.8475 67.2156 73.8475C67.7671 73.8475 68.2823 73.6016 68.6292 73.173C69.2463 72.4103 69.1427 71.2709 68.3971 70.6337C66.5683 69.1082 64.9432 67.3429 63.5692 65.3889L63.1248 64.756H73.9395L74.0086 65.072C74.39 66.8295 74.844 68.6009 75.3592 70.3368C75.5845 71.1116 76.3025 71.651 77.1043 71.651C77.2769 71.651 77.4495 71.6259 77.6161 71.5765C78.0821 71.4398 78.4679 71.1289 78.7009 70.7013C78.9339 70.2736 78.9874 69.7801 78.8511 69.3126C78.4463 67.9533 78.0864 66.594 77.7766 65.2478L77.6635 64.756H93.6885L93.5737 65.2486C93.2621 66.5932 92.9023 67.9524 92.507 69.29C92.3637 69.7593 92.4112 70.2528 92.6399 70.6831C92.8686 71.1134 93.2501 71.4285 93.7144 71.5714C93.8879 71.6242 94.0674 71.651 94.246 71.651C95.0512 71.651 95.7494 71.1315 95.985 70.3584C96.508 68.6061 96.962 66.8347 97.3417 65.0729L97.4099 64.756H108.234L107.787 65.3897C106.784 66.8105 105.641 68.1403 104.39 69.3437C103.667 70.0407 103.643 71.1982 104.338 71.9246C104.684 72.2865 105.15 72.4856 105.649 72.4856ZM78.4506 31.6558C79.2403 28.7832 80.2285 25.9348 81.3867 23.1929L81.4739 22.9851L81.6965 22.9522C83.0092 22.7566 84.3478 22.6579 85.6752 22.6579C87.0025 22.6579 88.3411 22.7574 89.6538 22.9522L89.8764 22.9851L89.9636 23.1929C91.1227 25.9366 92.11 28.7841 92.8988 31.6558L93.0386 32.164H78.31L78.4506 31.6558ZM77.4452 35.8133H93.9051L93.9707 36.1345C94.7328 39.8807 95.1833 43.716 95.3084 47.5358L95.3222 47.9505H76.0289L76.0428 47.5358C76.1679 43.7152 76.6184 39.8798 77.3805 36.1345L77.4452 35.8133ZM72.7934 61.1068H62.0684C61.8854 61.1068 61.7051 61.1345 61.5307 61.1882L61.1941 61.2929L61.0483 60.9709C59.7693 58.1389 58.9908 55.133 58.7353 52.0352L58.6999 51.6006H72.3886L72.4007 51.9893C72.4887 54.8767 72.7546 57.7883 73.1895 60.6445L73.2603 61.1068H72.7943H72.7934ZM73.6392 36.2903C72.9341 39.9975 72.5172 43.7896 72.4024 47.5618L72.3904 47.9514H58.7008L58.7362 47.5168C59.0685 43.4762 60.3328 39.498 62.3929 36.0107L62.5094 35.8141H73.7307L73.64 36.2912L73.6392 36.2903ZM74.63 31.8619L74.5523 32.1632H65.1149L65.7277 31.4905C68.6223 28.3122 72.2782 25.8396 76.2999 24.3392L77.1181 24.0345L76.8152 24.8552C75.972 27.1417 75.2367 29.4992 74.63 31.8619ZM95.3084 52.0153C95.2135 54.939 94.927 57.8844 94.4575 60.77L94.4022 61.1068H76.9464L76.8911 60.77C76.4216 57.8826 76.1351 54.9364 76.041 52.0153L76.0272 51.6006H95.3214L95.3084 52.0153ZM97.1061 32.164H96.7954L96.7178 31.8628C96.1128 29.5027 95.3783 27.1452 94.5343 24.8569L94.2313 24.0362L95.0486 24.3409C99.0704 25.8413 102.725 28.3148 105.619 31.4922L106.232 32.1649H97.1044L97.1061 32.164ZM97.7094 36.2903L97.6188 35.8133H108.842L108.958 36.0098C111.017 39.4971 112.281 43.4753 112.614 47.5159L112.649 47.9505H98.9608L98.9487 47.5618C98.8331 43.7914 98.4162 39.9984 97.7103 36.2903H97.7094ZM98.556 61.1068H98.09L98.1608 60.6445C98.5957 57.7926 98.8616 54.8802 98.9496 51.9902L98.9617 51.6006H112.649L112.615 52.0344C112.367 55.1338 111.594 58.1424 110.316 60.9752L110.169 61.3007L109.83 61.1925C109.652 61.1353 109.467 61.1068 109.281 61.1068H98.5569H98.556Z" fill="white"/>
<path d="M87.8632 121.578V121.176H135.846L135.936 121.453C137.252 125.504 140.987 128.226 145.228 128.226C150.616 128.226 155 123.829 155 118.424C155 113.019 150.617 108.621 145.228 108.621C140.325 108.621 136.159 112.299 135.538 117.177L135.494 117.527H128.274V117.125L128.308 61.6044V61.2036H135.651L135.724 61.5118C136.778 65.9454 140.686 69.0423 145.228 69.0423C150.616 69.0423 155 64.645 155 59.2392C155 53.8333 150.617 49.436 145.228 49.436C140.686 49.436 136.778 52.5329 135.724 56.9665L135.651 57.2747H126.35C125.271 57.2747 124.393 58.1561 124.393 59.2383V76.0594H113.14C112.137 76.0594 111.321 76.8775 111.321 77.8844V117.526H106.081V87.3464C106.081 86.3404 105.265 85.5214 104.262 85.5214H90.946C89.9431 85.5214 89.1267 86.3395 89.1267 87.3464V117.526H83.8871V80.667C83.8871 79.661 83.0716 78.8419 82.0679 78.8419H68.7511C67.7483 78.8419 66.9318 79.6601 66.9318 80.667V117.526H61.6923V89.5732C61.6923 88.5672 60.8767 87.7481 59.873 87.7481H48.6069V69.8137C48.6069 68.7306 47.7283 67.8501 46.6495 67.8501H37.3494L37.276 67.5419C36.2231 63.1083 32.3144 60.0114 27.7722 60.0114C22.3842 60.0114 18 64.4087 18 69.8146C18 75.2204 22.3834 79.6177 27.7722 79.6177C32.3153 79.6177 36.2231 76.5208 37.276 72.0872L37.3494 71.779H44.6921V98.7123C44.6921 98.8413 44.7051 98.9711 44.731 99.1001L44.7387 99.1391V117.528H37.6117L37.5669 117.177C36.9463 112.3 32.7804 108.622 27.8775 108.622C22.4895 108.622 18.1053 113.02 18.1053 118.425C18.1053 123.83 22.4887 128.227 27.8775 128.227C32.1194 128.227 35.8537 125.505 37.169 121.454L37.2596 121.177H83.1156V134.331L82.8247 134.414C78.6399 135.606 75.7176 139.483 75.7176 143.843C75.7176 149.248 80.101 153.646 85.4898 153.646C90.8786 153.646 95.262 149.248 95.262 143.843C95.262 139.483 92.3398 135.606 88.154 134.414L87.8632 134.331V121.579V121.578ZM145.228 113.384C147.998 113.384 150.252 115.644 150.252 118.424C150.252 121.204 147.998 123.464 145.228 123.464C142.457 123.464 140.204 121.203 140.204 118.424C140.204 115.645 142.457 113.384 145.228 113.384ZM145.228 54.1978C147.998 54.1978 150.252 56.4583 150.252 59.2383C150.252 62.0183 147.998 64.2788 145.228 64.2788C142.457 64.2788 140.204 62.0183 140.204 59.2383C140.204 56.4583 142.457 54.1978 145.228 54.1978ZM114.958 117.125V79.7095H124.39L124.392 80.1086L124.636 117.123L124.639 117.527H114.958V117.125ZM92.7644 117.125V89.1723H102.443V117.527H92.7644V117.125ZM27.7731 74.8533C25.0027 74.8533 22.7493 72.5928 22.7493 69.8128C22.7493 67.0328 25.0027 64.7732 27.7731 64.7732C30.5434 64.7732 32.7977 67.0337 32.7977 69.8128C32.7977 72.5919 30.5443 74.8533 27.7731 74.8533ZM27.8775 123.464C25.1071 123.464 22.8537 121.203 22.8537 118.424C22.8537 115.645 25.1071 113.384 27.8775 113.384C30.6479 113.384 32.9013 115.644 32.9013 118.424C32.9013 121.204 30.6479 123.464 27.8775 123.464ZM58.0546 91.7991V117.526H48.3765V99.636L48.4153 99.5538C48.543 99.2863 48.6069 99.0023 48.6069 98.7105V91.3974H58.0537L58.0546 91.7991ZM80.2486 82.8938V117.526H70.5704V82.492H80.2486V82.8938ZM90.5136 143.841C90.5136 146.621 88.2602 148.882 85.4889 148.882C82.7177 148.882 80.4652 146.621 80.4652 143.841C80.4652 141.061 82.7186 138.802 85.4889 138.802C88.2593 138.802 90.5136 141.062 90.5136 143.841Z" fill="white"/>
</svg>
