<svg width="173" height="173" viewBox="0 0 173 173" fill="none" xmlns="http://www.w3.org/2000/svg">
<path d="M91.3902 146.67H83.9302V144.89C83.9102 129.16 63.9902 122.39 54.0802 134.31L43.5002 123.73C50.6502 117.68 51.5402 106.97 45.4902 99.82C41.9502 95.63 36.6002 93.42 31.1302 93.87V78.95C40.4502 79.77 48.6702 72.87 49.4902 63.55C49.9702 58.04 47.7402 52.65 43.5002 49.09L54.0802 38.51C60.0502 45.7 70.7102 46.68 77.9002 40.72C82.1902 37.16 84.4502 31.71 83.9402 26.15H91.4002C92.6802 26.13 93.7002 25.07 93.6802 23.79C93.6602 22.54 92.6502 21.53 91.4002 21.51H81.6202C80.3402 21.51 79.3002 22.55 79.3002 23.83V27.93C79.2202 34.65 73.7002 40.04 66.9702 39.95C63.8202 39.91 60.8102 38.65 58.5702 36.44L55.7202 33.59C54.8102 32.69 53.3502 32.69 52.4402 33.59L38.5802 47.45C36.3302 49.65 40.1302 52.09 41.4702 53.6C49.0402 60.86 43.3802 74.55 32.8902 74.31H28.8102C27.5302 74.31 26.4902 75.35 26.4902 76.63V96.19C26.4902 97.47 27.5302 98.51 28.8102 98.51H32.9102C43.3902 98.27 49.0202 111.97 41.4802 119.21L38.5802 122.08C37.6802 122.99 37.6702 124.45 38.5802 125.36L52.4402 139.22C53.3602 140.09 54.8002 140.09 55.7202 139.22L58.5702 136.36C63.3602 131.64 71.0702 131.7 75.7902 136.48C78.0002 138.72 79.2502 141.73 79.2902 144.87V148.97C79.2902 150.25 80.3302 151.29 81.6102 151.29H91.3902C92.6702 151.27 93.6902 150.21 93.6602 148.93C93.6402 147.68 92.6302 146.68 91.3902 146.66V146.67Z" fill="url(#paint0_linear_310_105)"/>
<path d="M81.61 151.8C80.05 151.8 78.79 150.53 78.79 148.98V144.88C78.75 141.85 77.56 139 75.43 136.84C73.24 134.62 70.32 133.38 67.2 133.36C64.08 133.37 61.14 134.53 58.92 136.72L56.07 139.57C54.95 140.63 53.21 140.63 52.1 139.57L38.23 125.7C37.14 124.6 37.14 122.81 38.23 121.71L41.13 118.84C45.14 114.99 44.98 109.79 43.49 106.2C42.01 102.63 38.46 98.85 32.93 98.99H28.82C27.26 98.99 26 97.72 26 96.17V76.61C26 75.86 26.29 75.15 26.83 74.62C27.36 74.09 28.07 73.8 28.82 73.8H32.9C38.46 73.91 42.01 70.15 43.49 66.58C44.98 63 45.14 57.79 41.13 53.95C40.85 53.64 40.49 53.31 40.11 52.95C38.91 51.84 37.41 50.46 37.39 48.95C37.39 48.27 37.67 47.64 38.24 47.09L52.1 33.23C53.2 32.14 54.99 32.14 56.08 33.23L58.93 36.08C61.09 38.21 63.95 39.4 66.98 39.44C70.11 39.46 73.05 38.3 75.28 36.12C77.51 33.94 78.76 31.03 78.8 27.91V23.82C78.8 22.26 80.06 21 81.62 21H91.4C92.94 21.03 94.15 22.24 94.18 23.77C94.19 24.52 93.91 25.24 93.39 25.78C92.87 26.32 92.16 26.63 91.41 26.64H84.48C84.82 32.17 82.5 37.54 78.22 41.09C74.64 44.06 70.12 45.46 65.49 45.03C61.04 44.62 57 42.56 54.06 39.23L44.24 49.04C48.33 52.69 50.47 58.08 49.99 63.57C49.58 68.21 47.39 72.42 43.83 75.41C40.4 78.29 36.09 79.72 31.64 79.46V93.31C37.06 93.03 42.36 95.31 45.88 99.47C51.98 106.68 51.21 117.45 44.24 123.73L54.06 133.55C58.8 128.19 66.21 126.32 73.08 128.8C80.08 131.33 84.43 137.48 84.44 144.86V146.14H91.41C92.93 146.17 94.15 147.38 94.18 148.91C94.21 150.46 92.97 151.75 91.41 151.78H81.62L81.61 151.8ZM67.12 132.36C70.4 132.36 73.67 133.62 76.15 136.13C78.46 138.47 79.76 141.58 79.8 144.87V148.98C79.8 149.98 80.61 150.8 81.62 150.8H91.4C92.39 150.78 93.19 149.95 93.17 148.95C93.15 147.97 92.37 147.19 91.39 147.17H83.43V144.89C83.43 137.94 79.32 132.15 72.73 129.77C66.08 127.37 58.91 129.28 54.46 134.63L54.11 135.05L42.76 123.7L43.17 123.35C50.1 117.49 50.97 107.08 45.1 100.14C41.67 96.08 36.46 93.93 31.16 94.37L30.62 94.42V78.41L31.16 78.46C40.19 79.26 48.18 72.54 48.97 63.51C49.44 58.17 47.26 52.93 43.16 49.48L42.74 49.13L54.09 37.78L54.44 38.2C57.24 41.57 61.19 43.65 65.55 44.06C69.92 44.46 74.18 43.14 77.55 40.34C81.72 36.88 83.91 31.59 83.41 26.2L83.36 25.65H91.37C91.85 25.65 92.3 25.44 92.64 25.1C92.98 24.75 93.16 24.29 93.15 23.81C93.13 22.82 92.35 22.04 91.36 22.02H81.59C80.59 22.02 79.77 22.83 79.77 23.84V27.94C79.73 31.33 78.37 34.5 75.94 36.86C73.52 39.22 70.32 40.48 66.93 40.46C63.64 40.42 60.53 39.12 58.19 36.81L55.34 33.96C54.63 33.26 53.48 33.26 52.77 33.96L38.91 47.82C38.53 48.19 38.35 48.56 38.36 48.96C38.38 50.04 39.7 51.26 40.76 52.24C41.16 52.61 41.54 52.96 41.82 53.28C45.45 56.76 46.45 62.02 44.39 66.99C42.33 71.94 37.92 74.93 32.86 74.83H28.79C28.31 74.83 27.85 75.02 27.51 75.36C27.17 75.7 26.98 76.16 26.98 76.64V96.2C26.98 97.2 27.79 98.02 28.8 98.02H32.9C37.93 97.92 42.34 100.9 44.39 105.84C46.42 110.73 45.41 116.12 41.81 119.58L38.92 122.45C38.21 123.16 38.21 124.32 38.92 125.03L52.78 138.89C53.5 139.57 54.63 139.57 55.36 138.89L58.2 136.04C60.67 133.61 63.89 132.4 67.1 132.4L67.12 132.36Z" fill="url(#paint1_linear_310_105)"/>
<path d="M91.3898 52.8C72.8298 52.8 57.7798 67.84 57.7798 86.41C57.7798 104.97 72.8298 120.02 91.3898 120.02C92.6698 120 93.6898 118.94 93.6598 117.66C93.6398 116.41 92.6298 115.41 91.3898 115.39C52.9498 113.8 52.9698 59.0301 91.3898 57.4501C92.6698 57.4301 93.6898 56.38 93.6698 55.1C93.6498 53.85 92.6398 52.83 91.3898 52.82V52.8Z" fill="url(#paint2_linear_310_105)"/>
<path d="M91.3898 120.52C82.2698 120.52 73.7098 116.97 67.2698 110.53C60.8298 104.09 57.2798 95.52 57.2798 86.41C57.2798 67.6 72.5798 52.3 91.3898 52.3C92.9198 52.32 94.1398 53.5401 94.1698 55.0801C94.1798 55.8301 93.8998 56.5401 93.3698 57.0801C92.8398 57.6201 92.1398 57.92 91.3898 57.93C77.7498 58.49 63.0598 67.64 63.0598 86.4C63.0598 99.55 71.9298 114.07 91.3998 114.87C92.9098 114.9 94.1198 116.11 94.1498 117.63C94.1598 118.38 93.8798 119.1 93.3598 119.64C92.8398 120.18 92.1398 120.49 91.3798 120.5H91.3698L91.3898 120.52ZM91.3898 53.3101C73.1298 53.3101 58.2798 68.1601 58.2798 86.4201C58.2798 95.2701 61.7198 103.58 67.9798 109.83C74.2298 116.08 82.5398 119.52 91.3798 119.52H91.3898C91.8698 119.52 92.3198 119.31 92.6598 118.96C92.9998 118.61 93.1798 118.15 93.1698 117.67C93.1498 116.69 92.3698 115.9 91.3898 115.89C71.2398 115.06 62.0798 100.03 62.0798 86.4201C62.0798 72.8101 71.2498 57.7801 91.3798 56.9501C91.8798 56.9501 92.3298 56.7501 92.6698 56.4001C93.0098 56.0501 93.1898 55.5901 93.1798 55.1101C93.1698 54.1201 92.3798 53.34 91.3898 53.32V53.3101Z" fill="url(#paint3_linear_310_105)"/>
<path d="M89.0801 68.8898C89.0801 70.1698 90.1201 71.2098 91.4001 71.2098H103.37C107.96 71.2098 112.36 69.3698 115.61 66.1198L125.44 56.3198C129.56 58.6298 134.78 57.1498 137.08 53.0298C139.39 48.9098 137.91 43.6898 133.79 41.3898C129.67 39.0798 124.45 40.5598 122.15 44.6798C120.7 47.2798 120.7 50.4498 122.16 53.0498L112.33 62.8598C109.96 65.2398 106.74 66.5798 103.38 66.5798H91.4101C90.1301 66.5798 89.0901 67.6198 89.0901 68.8998L89.0801 68.8898ZM129.59 44.9298C131.77 44.9598 133.51 46.7398 133.48 48.9198C133.45 51.0598 131.73 52.7798 129.59 52.8098C127.41 52.7898 125.67 51.0098 125.69 48.8298C125.71 46.6898 127.44 44.9498 129.59 44.9298Z" fill="url(#paint4_linear_310_105)"/>
<path d="M103.36 71.7099H91.3901C90.6301 71.7099 89.9301 71.4199 89.4001 70.8799C88.8701 70.3499 88.5801 69.6399 88.5801 68.8899C88.5801 68.1299 88.8701 67.4299 89.4101 66.8999C89.9401 66.3699 90.6501 66.0799 91.4001 66.0799H103.37C106.62 66.0799 109.67 64.8099 111.97 62.5099L121.54 52.9699C120.19 50.2999 120.24 47.0699 121.71 44.4499C122.89 42.3399 124.82 40.8099 127.15 40.1599C129.48 39.4999 131.92 39.7899 134.03 40.9699C136.14 42.1499 137.67 44.0799 138.33 46.4099C138.99 48.7399 138.7 51.1799 137.52 53.2899C136.34 55.3999 134.41 56.9299 132.08 57.5799C129.87 58.1999 127.56 57.9799 125.53 56.9499L115.96 66.4899C112.6 69.8599 108.13 71.7099 103.37 71.7199L103.36 71.7099ZM91.3901 67.0699C90.9101 67.0699 90.4501 67.2599 90.1101 67.5999C89.7701 67.9399 89.5801 68.3999 89.5801 68.8799C89.5801 69.3699 89.7701 69.8199 90.1101 70.1699C90.4501 70.5099 90.9101 70.6999 91.3901 70.6999H103.36C107.85 70.6999 112.07 68.9399 115.24 65.7599L125.34 55.6899L125.67 55.8699C127.55 56.9199 129.72 57.1799 131.79 56.5899C133.86 55.9999 135.58 54.6499 136.63 52.7699C137.68 50.8899 137.94 48.7199 137.35 46.6499C136.76 44.5799 135.41 42.8599 133.53 41.8099C131.65 40.7599 129.48 40.4999 127.41 41.0899C125.34 41.6799 123.62 43.0299 122.57 44.9099C121.21 47.3399 121.21 50.3599 122.58 52.7899L122.77 53.1199L112.67 63.1899C110.19 65.6799 106.88 67.0499 103.36 67.0599H91.3901V67.0699ZM129.59 53.2999C128.39 53.2899 127.28 52.8099 126.45 51.9699C125.62 51.1199 125.17 49.9999 125.18 48.8199C125.2 46.4199 127.18 44.4499 129.57 44.4299H129.58C130.77 44.4499 131.87 44.9199 132.7 45.7699C133.53 46.6199 133.98 47.7399 133.96 48.9299C133.93 51.3599 132 53.2799 129.58 53.3099L129.59 53.2999ZM129.59 45.4199C127.74 45.4399 126.21 46.9699 126.19 48.8199C126.19 49.7399 126.53 50.6099 127.17 51.2599C127.81 51.9199 128.67 52.2799 129.59 52.2899C131.46 52.2699 132.95 50.7699 132.97 48.8899C132.98 47.9699 132.64 47.0999 131.99 46.4499C131.35 45.7899 130.49 45.4199 129.58 45.4099L129.59 45.4199Z" fill="url(#paint5_linear_310_105)"/>
<path d="M139.6 77.8301C135.77 77.8401 132.41 80.4001 131.38 84.0901H91.3898C90.1098 84.1201 89.0998 85.1901 89.1398 86.4701C89.1698 87.7001 90.1598 88.6901 91.3898 88.7201H131.38C132.67 93.2701 137.4 95.9101 141.95 94.6201C146.5 93.3301 149.14 88.6001 147.85 84.0501C146.8 80.3601 143.43 77.8201 139.6 77.8301ZM139.6 90.3501C137.42 90.3501 135.66 88.5901 135.66 86.4101C135.66 84.2301 137.42 82.4701 139.6 82.4701C141.78 82.5101 143.51 84.3101 143.47 86.4801C143.43 88.6001 141.72 90.3101 139.6 90.3501Z" fill="url(#paint6_linear_310_105)"/>
<path d="M139.61 95.4501C138.09 95.4501 136.58 95.0601 135.21 94.3001C133.21 93.1801 131.73 91.3901 131.02 89.2301H91.3999C89.8899 89.1901 88.6899 87.9901 88.6499 86.4901C88.6099 84.9401 89.8399 83.6401 91.3899 83.6001H131.02C132.22 79.9101 135.7 77.3601 139.6 77.3401H139.62C143.65 77.3401 147.23 80.0501 148.33 83.9301C148.99 86.2601 148.7 88.7001 147.53 90.8201C146.35 92.9301 144.42 94.4601 142.09 95.1201C141.27 95.3501 140.43 95.4701 139.6 95.4701L139.61 95.4501ZM131.39 88.2201H131.77L131.87 88.5801C132.46 90.6501 133.82 92.3701 135.7 93.4201C137.58 94.4701 139.76 94.7201 141.83 94.1401C143.9 93.5501 145.62 92.1901 146.67 90.3101C147.72 88.4301 147.97 86.2501 147.39 84.1801C146.41 80.7301 143.22 78.3201 139.64 78.3201H139.62C136.03 78.3301 132.85 80.7601 131.88 84.2101L131.78 84.5801H91.4099C90.4199 84.6101 89.6299 85.4401 89.6599 86.4501C89.6899 87.4201 90.4599 88.1901 91.4299 88.2201H131.41H131.39ZM139.61 90.8401C137.16 90.8401 135.17 88.8501 135.17 86.4001C135.17 85.2101 135.63 84.1001 136.47 83.2601C137.31 82.4201 138.42 81.9601 139.61 81.9601C140.81 81.9801 141.91 82.4601 142.74 83.3201C143.56 84.1701 144.01 85.3001 143.98 86.4801C143.94 88.8801 142.02 90.8001 139.62 90.8401H139.61ZM139.6 82.9601C138.69 82.9601 137.83 83.3201 137.18 83.9701C136.53 84.6201 136.17 85.4801 136.17 86.4001C136.17 88.3001 137.71 89.8401 139.61 89.8401C141.47 89.8001 142.95 88.3201 142.98 86.4601C143 85.5401 142.65 84.6701 142.02 84.0101C141.39 83.3501 140.52 82.9801 139.61 82.9601H139.6Z" fill="url(#paint7_linear_310_105)"/>
<path d="M129.59 115.38C128.13 115.38 126.7 115.78 125.43 116.5L115.61 106.71C112.36 103.45 107.96 101.62 103.36 101.61H91.3902C90.1102 101.63 89.0902 102.68 89.1102 103.96C89.1302 105.21 90.1402 106.22 91.3902 106.24H103.36C106.73 106.24 109.95 107.59 112.33 109.97L122.15 119.76C119.84 123.9 121.32 129.12 125.46 131.43C129.6 133.74 134.82 132.26 137.13 128.12C139.44 123.98 137.96 118.76 133.82 116.45C132.53 115.73 131.07 115.36 129.6 115.36L129.59 115.38ZM129.59 127.89C127.41 127.84 125.69 126.04 125.73 123.87C125.77 121.76 127.48 120.06 129.59 120.01C131.76 120.07 133.48 121.89 133.41 124.06C133.35 126.15 131.67 127.82 129.59 127.88V127.89Z" fill="url(#paint8_linear_310_105)"/>
<path d="M129.62 133.03C128.09 133.03 126.58 132.64 125.21 131.88C123.09 130.7 121.56 128.76 120.9 126.43C120.27 124.22 120.5 121.91 121.53 119.87L111.97 110.34C109.67 108.03 106.61 106.76 103.36 106.75H91.3901C89.8501 106.73 88.6301 105.51 88.6101 103.98C88.6001 103.23 88.8801 102.52 89.4001 101.97C89.9201 101.42 90.6301 101.13 91.3801 101.11H103.36C108.12 101.11 112.6 102.98 115.96 106.35L125.51 115.88C126.76 115.23 128.16 114.88 129.58 114.87C131.14 114.87 132.69 115.26 134.05 116.02C136.17 117.2 137.7 119.14 138.36 121.47C139.02 123.8 138.74 126.25 137.56 128.37C136.38 130.49 134.44 132.02 132.11 132.68C131.29 132.91 130.45 133.03 129.62 133.03ZM103.36 105.75C106.88 105.75 110.19 107.13 112.68 109.63L122.77 119.69L122.59 120.02C121.54 121.9 121.28 124.08 121.87 126.16C122.46 128.23 123.82 129.96 125.7 131.01C127.58 132.06 129.76 132.32 131.84 131.73C133.91 131.14 135.64 129.78 136.69 127.9C137.74 126.02 138 123.84 137.41 121.76C136.82 119.69 135.46 117.96 133.58 116.91C132.37 116.23 130.98 115.88 129.6 115.89C128.23 115.89 126.88 116.26 125.69 116.95L125.36 117.14L115.27 107.08C112.09 103.89 107.87 102.14 103.37 102.13H91.4001C90.9201 102.13 90.4701 102.33 90.1301 102.68C89.7901 103.03 89.6101 103.49 89.6201 103.97C89.6401 104.96 90.4201 105.74 91.4101 105.76H103.37L103.36 105.75ZM129.59 128.39H129.58C127.13 128.34 125.18 126.31 125.23 123.86C125.28 121.47 127.19 119.56 129.58 119.51C130.79 119.54 131.89 120.04 132.71 120.9C133.52 121.76 133.95 122.89 133.92 124.08C133.85 126.43 131.96 128.32 129.61 128.39H129.6H129.59ZM129.57 120.51C127.75 120.55 126.27 122.03 126.23 123.88C126.19 125.77 127.69 127.34 129.58 127.39C131.39 127.33 132.85 125.86 132.91 124.05C132.94 123.13 132.6 122.26 131.97 121.59C131.34 120.92 130.49 120.54 129.57 120.51Z" fill="url(#paint9_linear_310_105)"/>
<defs>
<linearGradient id="paint0_linear_310_105" x1="26.5002" y1="86.41" x2="93.6702" y2="86.41" gradientUnits="userSpaceOnUse">
<stop stop-color="#AE4CFB"/>
<stop offset="0.55" stop-color="#00AEEF"/>
<stop offset="1" stop-color="#3AD77E"/>
</linearGradient>
<linearGradient id="paint1_linear_310_105" x1="26" y1="86.41" x2="94.17" y2="86.41" gradientUnits="userSpaceOnUse">
<stop stop-color="#AE4CFB"/>
<stop offset="0.55" stop-color="#00AEEF"/>
<stop offset="1" stop-color="#3AD77E"/>
</linearGradient>
<linearGradient id="paint2_linear_310_105" x1="57.7798" y1="86.41" x2="93.6798" y2="86.41" gradientUnits="userSpaceOnUse">
<stop stop-color="#AE4CFB"/>
<stop offset="0.55" stop-color="#00AEEF"/>
<stop offset="1" stop-color="#3AD77E"/>
</linearGradient>
<linearGradient id="paint3_linear_310_105" x1="57.2798" y1="86.41" x2="94.1798" y2="86.41" gradientUnits="userSpaceOnUse">
<stop stop-color="#AE4CFB"/>
<stop offset="0.55" stop-color="#00AEEF"/>
<stop offset="1" stop-color="#3AD77E"/>
</linearGradient>
<linearGradient id="paint4_linear_310_105" x1="89.0801" y1="55.7498" x2="138.16" y2="55.7498" gradientUnits="userSpaceOnUse">
<stop stop-color="#AE4CFB"/>
<stop offset="0.55" stop-color="#00AEEF"/>
<stop offset="1" stop-color="#3AD77E"/>
</linearGradient>
<linearGradient id="paint5_linear_310_105" x1="88.5801" y1="55.7499" x2="138.67" y2="55.7499" gradientUnits="userSpaceOnUse">
<stop stop-color="#AE4CFB"/>
<stop offset="0.55" stop-color="#00AEEF"/>
<stop offset="1" stop-color="#3AD77E"/>
</linearGradient>
<linearGradient id="paint6_linear_310_105" x1="89.1398" y1="86.3901" x2="148.18" y2="86.3901" gradientUnits="userSpaceOnUse">
<stop stop-color="#AE4CFB"/>
<stop offset="0.55" stop-color="#00AEEF"/>
<stop offset="1" stop-color="#3AD77E"/>
</linearGradient>
<linearGradient id="paint7_linear_310_105" x1="88.6399" y1="86.3901" x2="148.68" y2="86.3901" gradientUnits="userSpaceOnUse">
<stop stop-color="#AE4CFB"/>
<stop offset="0.55" stop-color="#00AEEF"/>
<stop offset="1" stop-color="#3AD77E"/>
</linearGradient>
<linearGradient id="paint8_linear_310_105" x1="89.1102" y1="117.07" x2="138.21" y2="117.07" gradientUnits="userSpaceOnUse">
<stop stop-color="#AE4CFB"/>
<stop offset="0.55" stop-color="#00AEEF"/>
<stop offset="1" stop-color="#3AD77E"/>
</linearGradient>
<linearGradient id="paint9_linear_310_105" x1="88.6101" y1="117.07" x2="138.72" y2="117.07" gradientUnits="userSpaceOnUse">
<stop stop-color="#AE4CFB"/>
<stop offset="0.55" stop-color="#00AEEF"/>
<stop offset="1" stop-color="#3AD77E"/>
</linearGradient>
</defs>
</svg>
