<svg width="173" height="173" viewBox="0 0 173 173" fill="none" xmlns="http://www.w3.org/2000/svg">
<path d="M130.79 113.83L114.88 121.35C112.68 117.26 108.47 114.66 103.83 114.53L89.1398 114.13C86.8098 114.06 84.5298 113.47 82.4598 112.41L80.9698 111.64C73.3198 107.65 64.1898 107.66 56.5498 111.67L56.6398 108.28C56.6698 107.16 55.7898 106.22 54.6698 106.19L38.5598 105.75C37.4398 105.72 36.4998 106.6 36.4698 107.72L35.4998 143.07C35.4698 144.19 36.3498 145.13 37.4698 145.16L53.5798 145.6H53.6398C54.7398 145.6 55.6398 144.72 55.6698 143.62L55.7198 141.93L59.8998 139.69C61.5398 138.81 63.4598 138.6 65.2598 139.1L90.2498 146.11C90.2498 146.11 90.3398 146.13 90.3798 146.14C92.1898 146.52 94.0298 146.71 95.8698 146.71C99.7798 146.71 103.64 145.87 107.19 144.24C107.28 144.2 107.36 144.15 107.44 144.1L143.67 120.66C144.57 120.08 144.86 118.89 144.34 117.95C141.65 113.18 135.68 111.36 130.79 113.82V113.83ZM51.6598 141.47L39.6098 141.14L40.4698 109.85L52.5198 110.18L51.6598 141.47ZM105.36 140.61C100.95 142.6 96.0198 143.15 91.2798 142.18L66.3598 135.18C63.5498 134.39 60.5498 134.72 57.9898 136.1L55.8498 137.25L56.4198 116.45C63.1998 111.94 71.8898 111.48 79.0998 115.24L80.5898 116.01C83.1998 117.36 86.0798 118.1 89.0198 118.19L103.71 118.59C107.84 118.71 111.34 121.65 112.18 125.69L90.2998 125.09C89.1798 125.06 88.2398 125.94 88.2098 127.06C88.1798 128.18 89.0598 129.12 90.1798 129.15L114.33 129.81H114.39C115.49 129.81 116.39 128.93 116.42 127.83C116.44 126.95 116.38 126.06 116.22 125.19L132.54 117.48C132.54 117.48 132.57 117.47 132.59 117.46C134.9 116.29 137.7 116.68 139.61 118.44L105.35 140.6L105.36 140.61Z" fill="white"/>
<path d="M141.02 54.36C142.12 53.06 142.78 51.38 142.78 49.54C142.78 45.43 139.45 42.08 135.35 42.08C134.21 42.08 133.13 42.34 132.17 42.8C130.92 41.53 129.62 40.31 128.27 39.16C128.58 38.33 128.76 37.44 128.76 36.5C128.76 32.39 125.43 29.04 121.33 29.04C119.32 29.04 117.49 29.85 116.15 31.15C108.03 27.13 98.99 25 89.88 25C80.77 25 71.32 27.22 63.05 31.43C61.69 29.96 59.75 29.04 57.6 29.04C53.5 29.04 50.17 32.39 50.17 36.5C50.17 37.64 50.43 38.71 50.88 39.68C48.88 41.43 46.99 43.32 45.25 45.32C44.56 46.11 44.64 47.32 45.43 48.01C45.79 48.33 46.24 48.48 46.68 48.48C47.21 48.48 47.74 48.26 48.12 47.83C49.74 45.98 51.49 44.23 53.33 42.61C54.54 43.46 56.01 43.97 57.6 43.97C60.48 43.97 62.98 42.31 64.22 39.9C70.71 41.78 76.92 44.46 82.7 47.9C82.54 48.52 82.45 49.16 82.45 49.83C82.45 51.04 82.74 52.17 83.25 53.18C78.49 57.3 74.19 61.96 70.46 67.06C69.8 66.87 69.1 66.76 68.38 66.76C65.41 66.76 62.84 68.52 61.65 71.06C54.05 71.1 46.43 71.92 38.94 73.5C38.28 72.29 37.29 71.29 36.11 70.61C37.52 65.13 39.75 59.92 42.75 55.1C43.31 54.21 43.03 53.03 42.14 52.47C41.25 51.91 40.07 52.19 39.51 53.08C36.31 58.22 33.94 63.78 32.43 69.62C28.33 69.62 25 72.97 25 77.08C25 80.53 27.35 83.44 30.53 84.29C30.53 84.41 30.53 84.53 30.53 84.65C30.53 89.95 31.23 95.16 32.57 100.17C33.61 99.35 34.8 98.76 36.06 98.43C34.93 93.98 34.35 89.36 34.35 84.66C34.35 84.54 34.35 84.42 34.35 84.3C37.49 83.46 39.82 80.61 39.87 77.21C46.84 75.75 53.93 74.97 60.99 74.88C61.14 76.61 61.88 78.16 63 79.35C59.93 85.54 57.65 92.03 56.2 98.68C57.51 98.89 58.73 99.37 59.81 100.06C61.17 93.63 63.33 87.36 66.26 81.37C66.93 81.57 67.65 81.68 68.39 81.68C71.99 81.68 74.99 79.11 75.68 75.7C84.26 76.76 92.62 78.84 100.67 81.88C99.98 83.83 99.61 85.93 99.6 88.11C99.6 93.28 101.68 97.96 105.04 101.39C103.23 103.25 101.35 105.06 99.42 106.78L104.07 106.91C104.34 106.91 104.6 106.93 104.87 106.95C105.93 105.94 106.97 104.9 107.99 103.84C111.01 105.88 114.65 107.07 118.57 107.07C124.2 107.07 129.27 104.6 132.74 100.69C134.49 102.17 136.2 103.69 137.86 105.27C140.29 105.6 142.6 106.43 144.67 107.68C147.67 100.48 149.27 92.67 149.27 84.65C149.27 73.95 146.43 63.51 141.05 54.35L141.02 54.36ZM57.6 40.15C55.6 40.15 53.98 38.51 53.98 36.5C53.98 34.49 55.6 32.85 57.6 32.85C59.6 32.85 61.22 34.49 61.22 36.5C61.22 38.51 59.6 40.15 57.6 40.15ZM32.41 80.73C30.41 80.73 28.79 79.09 28.79 77.08C28.79 75.07 30.41 73.43 32.41 73.43C34.41 73.43 36.03 75.07 36.03 77.08C36.03 79.09 34.41 80.73 32.41 80.73ZM68.37 77.87C66.37 77.87 64.75 76.23 64.75 74.22C64.75 72.21 66.37 70.57 68.37 70.57C70.37 70.57 71.99 72.21 71.99 74.22C71.99 76.23 70.37 77.87 68.37 77.87ZM135.35 45.9C137.35 45.9 138.97 47.54 138.97 49.55C138.97 51.56 137.35 53.2 135.35 53.2C133.35 53.2 131.73 51.56 131.73 49.55C131.73 47.54 133.35 45.9 135.35 45.9ZM121.32 32.86C123.32 32.86 124.94 34.5 124.94 36.51C124.94 38.52 123.32 40.16 121.32 40.16C119.32 40.16 117.7 38.52 117.7 36.51C117.7 34.5 119.32 32.86 121.32 32.86ZM121.32 43.97C123.11 43.97 124.75 43.33 126.03 42.28C127.14 43.24 128.22 44.25 129.25 45.29C128.41 46.5 127.91 47.97 127.91 49.55C127.91 52.34 129.44 54.77 131.7 56.05C130.2 61.09 128.33 66 126.13 70.75C123.8 69.73 121.23 69.16 118.53 69.16C116.1 69.16 113.77 69.63 111.63 70.48C107.4 64.06 102.29 58.21 96.5 53.19C97.01 52.18 97.3 51.04 97.3 49.84C97.3 49.17 97.21 48.53 97.05 47.91C102.62 44.6 108.58 41.99 114.81 40.12C116.08 42.42 118.52 43.98 121.32 43.98V43.97ZM65.02 36.16C65 35.7 64.93 35.24 64.83 34.81C72.54 30.89 81.16 28.83 89.87 28.83C98.58 28.83 106.66 30.77 114.18 34.45C114 35.07 113.9 35.73 113.89 36.41C107.32 38.36 101.03 41.11 95.16 44.59C93.81 43.22 91.94 42.37 89.88 42.37C87.82 42.37 85.95 43.22 84.6 44.59C78.48 40.96 71.91 38.13 65.03 36.16H65.02ZM93.49 49.83C93.49 51.84 91.87 53.48 89.87 53.48C87.87 53.48 86.25 51.84 86.25 49.83C86.25 47.82 87.87 46.18 89.87 46.18C91.87 46.18 93.49 47.82 93.49 49.83ZM75.4 71.83C75.04 70.78 74.46 69.84 73.71 69.06C77.23 64.28 81.27 59.91 85.75 56.04C86.93 56.83 88.34 57.29 89.86 57.29C91.38 57.29 92.79 56.83 93.97 56.04C99.41 60.75 104.21 66.22 108.22 72.23C105.8 73.81 103.75 75.93 102.26 78.42C93.61 75.13 84.63 72.92 75.39 71.83H75.4ZM118.54 103.51C110.05 103.51 103.14 96.6 103.14 88.11C103.14 79.63 110.06 72.72 118.54 72.71C127.03 72.71 133.94 79.62 133.94 88.11C133.94 96.6 127.03 103.51 118.54 103.51ZM141.99 103.99C139.74 101.76 137.38 99.62 134.95 97.58C136.57 94.79 137.5 91.56 137.5 88.11C137.5 81.72 134.32 76.06 129.46 72.63C131.81 67.58 133.8 62.36 135.39 57C136.26 57 137.1 56.84 137.88 56.55C142.82 65.06 145.42 74.73 145.42 84.65C145.42 91.34 144.24 97.87 141.99 103.98V103.99Z" fill="white"/>
<path d="M118.54 81.4701C119.85 81.4701 120.92 82.5401 120.92 83.8501C120.92 84.8301 121.72 85.6301 122.7 85.6301C123.68 85.6301 124.48 84.8301 124.48 83.8501C124.48 81.2001 122.68 78.8601 120.16 78.1301V77.3701C120.16 76.3901 119.36 75.5901 118.38 75.5901C117.4 75.5901 116.6 76.3901 116.6 77.3701V78.2301C113.96 79.1401 112.27 81.8301 112.65 84.6401C113.04 87.5801 115.57 89.7901 118.54 89.7901C119.83 89.7901 120.9 90.8401 120.92 92.1301C120.94 93.4001 119.95 94.4701 118.68 94.5501C118.52 94.5201 118.36 94.5201 118.21 94.5301C117.04 94.3601 116.16 93.3601 116.16 92.1701C116.16 91.1901 115.36 90.3901 114.38 90.3901C113.4 90.3901 112.6 91.1901 112.6 92.1701C112.6 94.7101 114.23 96.9601 116.6 97.7901V98.6901C116.6 99.6701 117.4 100.47 118.38 100.47C119.36 100.47 120.16 99.6701 120.16 98.6901V97.8901C122.92 97.1101 124.75 94.4601 124.45 91.5601C124.14 88.5201 121.59 86.2301 118.54 86.2301C117.23 86.2301 116.16 85.1601 116.16 83.8501C116.16 82.5401 117.23 81.4701 118.54 81.4701Z" fill="white"/>
</svg>
