<svg width="100" height="100" viewBox="0 0 100 100" fill="none" xmlns="http://www.w3.org/2000/svg">
<path d="M40.1531 7.57142C36.6755 10.4554 33.7222 13.8034 31.3204 17.5975C27.234 24.0495 24.9166 31.6557 24.6243 39.5904C24.3169 47.935 26.2004 56.2584 30.0668 63.6657C33.7915 70.7988 39.1526 76.633 45.6348 80.635V92.415C42.139 89.8686 37.0371 85.7882 31.9502 80.4211C26.6886 74.8701 22.5057 69.072 19.5163 63.1896C15.8307 55.9359 13.9623 48.5256 13.9623 41.1635C13.9653 24.9807 25.1245 11.3534 40.1531 7.57142ZM48.6001 3.56641C27.8669 3.56641 11 20.4333 11 41.1635C11 75.5029 48.5971 98.0021 48.5971 98.0021V78.9414C22.1532 64.1599 17.8588 19.5503 51.8306 3.72311C51.5986 3.70503 51.3696 3.67791 51.1375 3.66284C50.9959 3.6538 50.8573 3.63873 50.7156 3.62969C50.0135 3.59051 49.3083 3.56641 48.6001 3.56641Z" fill="url(#paint0_linear_1432_7)"/>
<path d="M72.9721 14.0504C76.3382 16.5878 79.4301 20.3005 81.7476 24.5918C84.5562 29.7962 86.0389 35.525 86.0389 41.1603C86.0389 60.0432 70.8475 75.4455 52.046 75.789C49.1831 73.5108 46.706 70.8137 44.6839 67.764C43.3398 65.7358 42.2158 63.5842 41.3298 61.3391H51.3348C51.3408 61.3391 51.3468 61.3391 51.3529 61.3391C51.3679 61.3391 51.386 61.3391 51.4041 61.3391C62.5301 61.3391 71.5829 52.2863 71.5829 41.1633C71.5829 30.4833 63.2413 21.7138 52.7301 21.0298C54.6798 19.5561 56.7803 18.2935 59.0224 17.2508C63.4161 15.2046 68.1052 14.1287 72.9721 14.0504ZM73.5447 11.082C62.28 11.082 52.1635 16.0725 45.2685 23.9469H51.3318C51.3408 23.9469 51.3499 23.9469 51.3589 23.9469C51.374 23.9469 51.386 23.9469 51.4011 23.9469C60.8938 23.9469 68.6145 31.6676 68.6145 41.1603C68.6145 50.653 60.8938 58.3737 51.4011 58.3737C51.386 58.3737 51.371 58.3707 51.3559 58.3707C51.3468 58.3707 51.3408 58.3707 51.3318 58.3707H37.2344C39.3619 66.3114 44.0209 73.2305 50.3042 78.1878C50.5784 78.3777 50.8526 78.5645 51.1238 78.7484C51.2173 78.7484 51.3077 78.7544 51.4011 78.7544C72.1313 78.7544 88.9982 61.8875 88.9982 41.1573C88.9982 27.9609 81.63 16.4431 73.9364 11.0881C73.8069 11.0911 73.6773 11.082 73.5447 11.082Z" fill="url(#paint1_linear_1432_7)"/>
<path d="M63.47 1L63.4007 1.01507C55.0923 2.88347 46.7869 8.62128 40.6152 16.7549C34.1963 25.2139 30.8302 35.249 31.0924 45.0943C31.0954 45.3625 31.1044 45.6157 31.1195 45.8567L31.689 45.8236C31.68 45.6368 31.674 45.4499 31.668 45.2631C31.6167 40.5529 34.3711 28.4565 43.5896 18.7408C51.3525 10.559 61.4147 6.4033 73.5292 6.4033C73.8366 6.4033 74.144 6.40631 74.4514 6.41234L75.3886 6.42741L74.6171 5.89401C70.8381 3.27222 67.921 2.19638 63.5363 1.01808L63.47 1Z" fill="url(#paint2_linear_1432_7)"/>
<defs>
<linearGradient id="paint0_linear_1432_7" x1="22.9238" y1="80.501" x2="53.8891" y2="12.8829" gradientUnits="userSpaceOnUse">
<stop stop-color="#885DA7"/>
<stop offset="0.5479" stop-color="#2BACE2"/>
<stop offset="1" stop-color="#5DBE79"/>
</linearGradient>
<linearGradient id="paint1_linear_1432_7" x1="42.8697" y1="89.6401" x2="73.835" y2="22.022" gradientUnits="userSpaceOnUse">
<stop stop-color="#885DA7"/>
<stop offset="0.5479" stop-color="#2BACE2"/>
<stop offset="1" stop-color="#5DBE79"/>
</linearGradient>
<linearGradient id="paint2_linear_1432_7" x1="25.2972" y1="81.5916" x2="56.2625" y2="13.9735" gradientUnits="userSpaceOnUse">
<stop stop-color="#885DA7"/>
<stop offset="0.5479" stop-color="#2BACE2"/>
<stop offset="1" stop-color="#5DBE79"/>
</linearGradient>
</defs>
</svg>
