<svg width="1920" height="322" viewBox="0 0 1920 322" fill="none" xmlns="http://www.w3.org/2000/svg">
<g clip-path="url(#clip0_1364_158)">
<path d="M94.6306 21.8193C83.0906 31.3893 73.2906 42.4993 65.3206 55.0893C51.7606 76.4993 44.0706 101.739 43.1006 128.069C42.0806 155.759 48.3306 183.379 61.1606 207.959C73.5206 231.629 91.3106 250.989 112.821 264.269V303.359C101.221 294.909 84.2906 281.369 67.4106 263.559C49.9506 245.139 36.0706 225.899 26.1506 206.379C13.9206 182.309 7.72062 157.719 7.72062 133.289C7.73063 79.5893 44.7606 34.3693 94.6306 21.8193ZM122.661 8.5293C53.8606 8.5293 -2.10938 64.4993 -2.10938 133.289C-2.10938 247.239 122.651 321.899 122.651 321.899V258.649C34.9006 209.599 20.6506 61.5693 133.381 9.0493C132.611 8.9893 131.851 8.8993 131.081 8.8493C130.611 8.8193 130.151 8.7693 129.681 8.7393C127.351 8.6093 125.011 8.5293 122.661 8.5293Z" fill="url(#paint0_linear_1364_158)"/>
<path d="M203.551 43.3109C214.721 51.7309 224.981 64.0509 232.671 78.2909C241.991 95.5609 246.911 114.571 246.911 133.271C246.911 195.931 196.501 247.041 134.111 248.181C124.611 240.621 116.391 231.671 109.681 221.551C105.221 214.821 101.491 207.681 98.5509 200.231H131.751C131.771 200.231 131.791 200.231 131.811 200.231C131.861 200.231 131.921 200.231 131.981 200.231C168.901 200.231 198.941 170.191 198.941 133.281C198.941 97.8409 171.261 68.7409 136.381 66.4709C142.851 61.5809 149.821 57.3909 157.261 53.9309C171.841 47.1409 187.401 43.5709 203.551 43.3109ZM205.451 33.4609C168.071 33.4609 134.501 50.0209 111.621 76.1509H131.741C131.771 76.1509 131.801 76.1509 131.831 76.1509C131.881 76.1509 131.921 76.1509 131.971 76.1509C163.471 76.1509 189.091 101.771 189.091 133.271C189.091 164.771 163.471 190.391 131.971 190.391C131.921 190.391 131.871 190.381 131.821 190.381C131.791 190.381 131.771 190.381 131.741 190.381H84.9609C92.0209 216.731 107.481 239.691 128.331 256.141C129.241 256.771 130.151 257.391 131.051 258.001C131.361 258.001 131.661 258.021 131.971 258.021C200.761 258.021 256.731 202.051 256.731 133.261C256.731 89.4709 232.281 51.2509 206.751 33.4809C206.321 33.4909 205.891 33.4609 205.451 33.4609Z" fill="url(#paint1_linear_1364_158)"/>
<path d="M171.999 0L171.769 0.05C144.199 6.25 116.639 25.29 96.159 52.28C74.859 80.35 63.689 113.65 64.559 146.32C64.569 147.21 64.599 148.05 64.649 148.85L66.539 148.74C66.509 148.12 66.489 147.5 66.469 146.88C66.299 131.25 75.439 91.11 106.029 58.87C131.789 31.72 165.179 17.93 205.379 17.93C206.399 17.93 207.419 17.94 208.439 17.96L211.549 18.01L208.989 16.24C196.449 7.54 186.769 3.97 172.219 0.06L171.999 0Z" fill="url(#paint2_linear_1364_158)"/>
<path d="M472.168 250.27V115.59H481.598V136.6C486.988 132.29 495.018 127.67 505.708 122.73C516.388 117.79 526.138 114.51 534.938 112.9V122.6C527.038 124.22 518.638 126.91 509.748 130.68C500.858 134.45 493.988 137.86 489.138 140.92L481.598 145.5V250.28H472.168V250.27Z" fill="white" stroke="white" stroke-width="1.9022" stroke-miterlimit="10"/>
<path d="M563.206 128.25C571.466 118.19 585.566 113.16 605.496 113.16C625.426 113.16 639.526 118.19 647.786 128.25C656.046 138.31 660.176 156.44 660.176 182.66C660.176 208.88 656.496 227.11 649.136 237.34C641.766 247.58 627.226 252.69 605.496 252.69C583.766 252.69 569.216 247.57 561.856 237.34C554.486 227.1 550.816 208.88 550.816 182.66C550.816 156.44 554.946 138.31 563.206 128.25ZM581.656 240.98C587.486 243.05 595.436 244.08 605.496 244.08C615.556 244.08 623.496 243.05 629.336 240.98C635.166 238.92 639.656 235.05 642.806 229.4C645.946 223.74 647.966 217.37 648.866 210.28C649.766 203.19 650.216 193.27 650.216 180.51C650.216 157.88 647.076 142.44 640.786 134.18C634.496 125.92 622.736 121.79 605.496 121.79C588.256 121.79 576.496 125.92 570.206 134.18C563.916 142.44 560.776 157.88 560.776 180.51C560.776 193.26 561.226 203.18 562.126 210.28C563.026 217.38 565.046 223.75 568.186 229.4C571.336 235.05 575.826 238.92 581.656 240.98Z" fill="white" stroke="white" stroke-width="1.9022" stroke-miterlimit="10"/>
<path d="M699.777 250.271V61.7109H709.477V250.271H699.777Z" fill="white" stroke="white" stroke-width="1.9022" stroke-miterlimit="10"/>
<path d="M764.957 250.27H755.527V115.59H764.957V126.37C780.937 117.57 797.277 113.17 813.977 113.17C830.677 113.17 841.897 117.71 847.647 126.77C853.387 135.84 856.267 153.66 856.267 180.24V250.28H846.837V180.78C846.837 157.08 844.687 141.32 840.377 133.51C836.067 125.7 826.637 121.79 812.097 121.79C804.917 121.79 797.417 122.91 789.607 125.16C781.797 127.41 775.737 129.6 771.427 131.76L764.967 135.26V250.27H764.957Z" fill="white" stroke="white" stroke-width="1.9022" stroke-miterlimit="10"/>
<path d="M962.41 124.212H913.39V194.782C913.39 215.432 914.87 228.862 917.83 235.052C920.79 241.252 927.57 244.342 938.17 244.342L964.57 242.192L965.38 250.812C953.53 252.252 944.46 252.962 938.17 252.962C925.42 252.962 916.53 249.692 911.5 243.132C906.47 236.582 903.96 223.872 903.96 205.012V124.202H882.68V115.582H903.96V71.6816H913.39V115.592H962.41V124.212Z" fill="white" stroke="white" stroke-width="1.9022" stroke-miterlimit="10"/>
<path d="M1074.47 242.19L1082.55 241.65L1083.09 250.27C1062.98 251.89 1046.36 252.69 1033.26 252.69C1014.22 252.51 1001.02 246.72 993.657 235.32C986.297 223.92 982.617 206.45 982.617 182.93C982.617 136.42 1000.76 113.16 1037.03 113.16C1054.09 113.16 1066.88 118.28 1075.41 128.51C1083.94 138.75 1088.2 155.18 1088.2 177.8V186.69H992.567C992.567 206.08 995.617 220.5 1001.73 229.92C1007.83 239.35 1017.98 244.06 1032.17 244.06C1046.36 244.08 1060.46 243.45 1074.47 242.19ZM992.577 178.08H1078.24C1078.24 157.79 1074.96 143.33 1068.41 134.71C1061.85 126.09 1051.39 121.78 1037.03 121.78C1007.4 121.78 992.577 140.55 992.577 178.08Z" fill="white" stroke="white" stroke-width="1.9022" stroke-miterlimit="10"/>
<path d="M1125.11 250.271V53.6309H1134.54V250.271H1125.11Z" fill="white" stroke="white" stroke-width="1.9022" stroke-miterlimit="10"/>
<path d="M1178.71 76.5309V61.7109H1188.14V76.5209H1178.71V76.5309ZM1178.71 250.271V115.591H1188.14V250.271H1178.71Z" fill="white" stroke="white" stroke-width="1.9022" stroke-miterlimit="10"/>
<path d="M1335.75 272.09C1335.75 287.35 1331.21 298.26 1322.15 304.82C1313.08 311.37 1298.08 314.65 1277.17 314.65C1256.25 314.65 1242.33 311.64 1235.42 305.63C1228.5 299.61 1225.05 288.34 1225.05 271.82C1225.05 261.58 1228.46 253.41 1235.29 247.31C1237.8 244.98 1242.02 241.65 1247.95 237.34C1244 234.83 1242.02 228.99 1242.02 219.83C1242.02 217.32 1244.08 211.75 1248.22 203.13L1250.11 198.82C1234.66 193.79 1226.94 180.14 1226.94 157.88C1226.94 127.89 1242.29 112.9 1273 112.9C1282.33 112.9 1290.6 113.8 1297.78 115.59L1301.55 116.4L1339.26 115.59V125.02H1310.17C1317.35 131.67 1320.94 142.85 1320.94 158.56C1320.94 174.28 1317.03 185.46 1309.22 192.1C1301.41 198.75 1288.97 202.07 1271.91 202.07C1266.52 202.07 1261.67 201.71 1257.36 200.99C1253.23 211.23 1251.16 217.69 1251.16 220.38C1251.16 223.07 1251.34 225.14 1251.7 226.58C1252.06 228.02 1252.78 229.37 1253.85 230.62C1254.93 231.88 1256.99 232.69 1260.05 233.05C1265.61 233.95 1276.12 234.4 1291.57 234.4C1307.01 234.4 1318.24 236.87 1325.24 241.81C1332.25 246.73 1335.75 256.82 1335.75 272.09ZM1234.74 271.55C1234.74 284.84 1237.57 293.91 1243.23 298.76C1248.89 303.61 1260.38 306.03 1277.71 306.03C1295.04 306.03 1307.38 303.47 1314.75 298.35C1322.11 293.23 1325.79 284.52 1325.79 272.22C1325.79 259.92 1323.1 251.97 1317.71 248.38C1312.32 244.79 1302.26 242.99 1287.54 242.99L1254.95 242.18C1246.87 247.75 1241.48 252.46 1238.79 256.32C1236.08 260.19 1234.74 265.26 1234.74 271.55ZM1236.62 157.88C1236.62 171.17 1239.4 180.42 1244.97 185.63C1250.53 190.84 1260.1 193.44 1273.66 193.44C1287.22 193.44 1296.83 190.88 1302.48 185.76C1308.14 180.64 1310.97 171.35 1310.97 157.88C1310.97 144.41 1308.14 134.98 1302.48 129.6C1296.82 124.21 1287.21 121.52 1273.66 121.52C1260.1 121.52 1250.54 124.26 1244.97 129.74C1239.4 135.21 1236.62 144.59 1236.62 157.88Z" fill="white" stroke="white" stroke-width="1.9022" stroke-miterlimit="10"/>
<path d="M1451.85 242.19L1459.93 241.65L1460.47 250.27C1440.36 251.89 1423.74 252.69 1410.64 252.69C1391.6 252.51 1378.4 246.72 1371.04 235.32C1363.68 223.92 1360 206.45 1360 182.93C1360 136.42 1378.14 113.16 1414.41 113.16C1431.47 113.16 1444.26 118.28 1452.79 128.51C1461.32 138.75 1465.58 155.18 1465.58 177.8V186.69H1369.95C1369.95 206.08 1373 220.5 1379.11 229.92C1385.21 239.35 1395.36 244.06 1409.55 244.06C1423.74 244.08 1437.84 243.45 1451.85 242.19ZM1369.96 178.08H1455.62C1455.62 157.79 1452.34 143.33 1445.79 134.71C1439.23 126.09 1428.77 121.78 1414.41 121.78C1384.77 121.78 1369.96 140.55 1369.96 178.08Z" fill="white" stroke="white" stroke-width="1.9022" stroke-miterlimit="10"/>
<path d="M1510.3 250.27H1500.87V115.59H1510.3V126.37C1526.28 117.57 1542.62 113.17 1559.32 113.17C1576.02 113.17 1587.24 117.71 1592.99 126.77C1598.73 135.84 1601.61 153.66 1601.61 180.24V250.28H1592.18V180.78C1592.18 157.08 1590.03 141.32 1585.72 133.51C1581.41 125.7 1571.98 121.79 1557.44 121.79C1550.26 121.79 1542.76 122.91 1534.95 125.16C1527.14 127.41 1521.08 129.6 1516.77 131.76L1510.31 135.26V250.27H1510.3Z" fill="white" stroke="white" stroke-width="1.9022" stroke-miterlimit="10"/>
<path d="M1692.93 121.78C1675.87 121.78 1664.06 126.09 1657.51 134.71C1650.95 143.33 1647.68 159.09 1647.68 181.98C1647.68 204.87 1650.64 220.95 1656.57 230.2C1662.5 239.45 1674.62 244.07 1692.93 244.07L1725.25 241.65L1725.79 250.27C1710.7 251.89 1699.75 252.69 1692.93 252.69C1671.02 252.69 1656.34 247.53 1648.89 237.2C1641.44 226.88 1637.71 208.56 1637.71 182.25C1637.71 155.94 1641.84 137.85 1650.1 127.97C1658.36 118.1 1672.63 113.15 1692.93 113.15L1725.25 115.84L1724.71 124.46C1710.34 122.68 1699.75 121.78 1692.93 121.78Z" fill="white" stroke="white" stroke-width="1.9022" stroke-miterlimit="10"/>
<path d="M1758.38 76.5309V61.7109H1767.81V76.5209H1758.38V76.5309ZM1758.38 250.271V115.591H1767.81V250.271H1758.38Z" fill="white" stroke="white" stroke-width="1.9022" stroke-miterlimit="10"/>
<path d="M1899.8 155.18V232.76C1900.52 239.22 1907.25 243 1920 244.07L1919.46 252.42C1906.35 252.42 1897.1 248.65 1891.71 241.11C1873.39 248.83 1855.25 252.69 1837.3 252.69C1826.16 252.69 1817.5 249.37 1811.31 242.72C1805.11 236.08 1802.02 226.6 1802.02 214.3C1802.02 202 1804.98 192.62 1810.91 186.15C1816.84 179.69 1826.26 175.83 1839.19 174.57L1890.37 169.18V155.17C1890.37 143.68 1887.9 135.33 1882.96 130.12C1878.02 124.91 1870.52 122.31 1860.47 122.31C1850.23 122.31 1836.05 123.48 1817.91 125.81L1809.56 126.89L1808.75 118C1828.86 114.77 1846.1 113.15 1860.47 113.15C1886.69 113.16 1899.8 127.17 1899.8 155.18ZM1818.45 191.82C1814.14 196.67 1811.99 203.94 1811.99 213.64C1811.99 223.34 1814.19 230.84 1818.59 236.13C1822.99 241.43 1829.14 244.08 1837.04 244.08C1844.94 244.08 1853.29 243.14 1862.09 241.25C1870.89 239.36 1877.8 237.52 1882.83 235.73L1890.37 233.04V177.82L1840.27 182.94C1830.03 184.01 1822.76 186.97 1818.45 191.82Z" fill="white" stroke="white" stroke-width="1.9022" stroke-miterlimit="10"/>
<path d="M426.508 75.8607C417.618 66.4307 403.478 61.7207 384.078 61.7207H315.398V70.8807H325.098H346.258H384.088C400.068 70.8807 411.648 74.8807 418.838 82.8707C426.018 90.8607 429.608 103.121 429.608 119.641C429.608 154.481 414.428 171.901 384.088 171.901H346.258H325.098H315.398V250.291H325.098V181.061H384.088C421.258 181.061 439.848 160.591 439.848 119.641C439.848 99.8807 435.398 85.2807 426.508 75.8607Z" fill="white" stroke="white" stroke-width="1.9022" stroke-miterlimit="10"/>
</g>
<defs>
<linearGradient id="paint0_linear_1364_158" x1="37.4577" y1="263.825" x2="140.211" y2="39.4446" gradientUnits="userSpaceOnUse">
<stop stop-color="#885DA7"/>
<stop offset="0.5479" stop-color="#2BACE2"/>
<stop offset="1" stop-color="#5DBE79"/>
</linearGradient>
<linearGradient id="paint1_linear_1364_158" x1="103.661" y1="294.143" x2="206.414" y2="69.7634" gradientUnits="userSpaceOnUse">
<stop stop-color="#885DA7"/>
<stop offset="0.5479" stop-color="#2BACE2"/>
<stop offset="1" stop-color="#5DBE79"/>
</linearGradient>
<linearGradient id="paint2_linear_1364_158" x1="45.3286" y1="267.431" x2="148.082" y2="43.0504" gradientUnits="userSpaceOnUse">
<stop stop-color="#885DA7"/>
<stop offset="0.5479" stop-color="#2BACE2"/>
<stop offset="1" stop-color="#5DBE79"/>
</linearGradient>
<clipPath id="clip0_1364_158">
<rect width="1920" height="321.9" fill="white"/>
</clipPath>
</defs>
</svg>
