<svg width="2149" height="442" viewBox="0 0 2149 442" fill="none" xmlns="http://www.w3.org/2000/svg">
<path d="M152.97 82.4191C141.64 91.8091 132.02 102.729 124.19 115.079C110.87 136.099 103.33 160.879 102.38 186.739C101.38 213.919 107.51 241.049 120.11 265.169C132.25 288.399 149.71 307.409 170.83 320.459V358.839C159.44 350.539 142.82 337.249 126.25 319.769C109.11 301.689 95.48 282.799 85.74 263.629C73.73 239.999 67.65 215.859 67.65 191.869C67.65 139.139 104.01 94.7391 152.97 82.4191ZM180.49 69.3691C112.95 69.3691 58 124.319 58 191.859C58 303.739 180.49 377.039 180.49 377.039V314.939C94.33 266.789 80.34 121.449 191.02 69.8791C190.27 69.8191 189.52 69.7291 188.76 69.6791C188.3 69.6491 187.85 69.5991 187.38 69.5791C185.09 69.4491 182.8 69.3691 180.49 69.3691Z" fill="url(#paint0_linear_1343_19)"/>
<path d="M259.9 103.52C270.86 111.79 280.94 123.88 288.49 137.87C297.64 154.83 302.47 173.49 302.47 191.85C302.47 253.37 252.98 303.55 191.72 304.67C182.39 297.25 174.32 288.46 167.73 278.52C163.35 271.91 159.69 264.9 156.81 257.58H189.41C189.43 257.58 189.45 257.58 189.47 257.58C189.52 257.58 189.58 257.58 189.63 257.58C225.88 257.58 255.37 228.09 255.37 191.84C255.37 157.04 228.19 128.47 193.95 126.24C200.3 121.44 207.15 117.32 214.45 113.93C228.77 107.28 244.05 103.78 259.9 103.52ZM261.78 93.8496C225.08 93.8496 192.12 110.11 169.66 135.77H189.41C189.44 135.77 189.47 135.77 189.5 135.77C189.55 135.77 189.59 135.77 189.63 135.77C220.55 135.77 245.71 160.93 245.71 191.85C245.71 222.77 220.55 247.93 189.63 247.93C189.58 247.93 189.54 247.92 189.49 247.92C189.46 247.92 189.44 247.92 189.41 247.92H143.48C150.41 273.8 165.59 296.33 186.06 312.48C186.96 313.1 187.84 313.7 188.73 314.3C189.03 314.3 189.33 314.32 189.64 314.32C257.18 314.32 312.13 259.37 312.13 191.83C312.13 148.83 288.12 111.31 263.06 93.8596C262.63 93.8796 262.21 93.8496 261.78 93.8496Z" fill="url(#paint1_linear_1343_19)"/>
<path d="M228.931 61L228.711 61.05C201.641 67.14 174.581 85.83 154.481 112.33C133.571 139.89 122.601 172.58 123.461 204.66C123.471 205.53 123.501 206.36 123.551 207.15L125.401 207.04C125.371 206.43 125.351 205.82 125.331 205.21C125.161 189.86 134.141 150.45 164.171 118.8C189.461 92.15 222.251 78.61 261.711 78.61C262.711 78.61 263.711 78.62 264.711 78.64L267.761 78.69L265.251 76.95C252.941 68.41 243.431 64.9 229.151 61.07L228.931 61Z" fill="url(#paint2_linear_1343_19)"/>
<path d="M554.582 312.679V169.249H564.622V191.629C570.362 187.039 578.912 182.119 590.292 176.859C601.672 171.599 612.042 168.109 621.412 166.389V176.719C612.992 178.439 604.062 181.309 594.592 185.329C585.122 189.349 577.812 192.979 572.642 196.229L564.612 201.109V312.699H554.582V312.679Z" fill="white"/>
<path d="M651.543 182.73C660.333 172.02 675.353 166.67 696.583 166.67C717.813 166.67 732.823 172.03 741.623 182.73C750.413 193.44 754.823 212.76 754.823 240.68C754.823 268.6 750.903 288.01 743.063 298.91C735.223 309.81 719.733 315.26 696.593 315.26C673.453 315.26 657.963 309.81 650.123 298.91C642.283 288.01 638.363 268.6 638.363 240.68C638.343 212.76 642.743 193.44 651.543 182.73ZM671.193 302.78C677.403 304.98 685.873 306.08 696.583 306.08C707.293 306.08 715.753 304.98 721.973 302.78C728.183 300.58 732.963 296.47 736.313 290.44C739.653 284.42 741.803 277.63 742.763 270.07C743.723 262.52 744.203 251.95 744.203 238.37C744.203 214.27 740.853 197.83 734.163 189.03C727.463 180.24 714.943 175.83 696.583 175.83C678.223 175.83 665.693 180.23 659.003 189.03C652.303 197.83 648.963 214.27 648.963 238.37C648.963 251.95 649.443 262.51 650.393 270.07C651.343 277.63 653.503 284.41 656.843 290.44C660.193 296.47 664.973 300.59 671.193 302.78Z" fill="white"/>
<path d="M796.98 312.679V111.869H807.31V312.679H796.98Z" fill="white"/>
<path d="M866.403 312.68H856.363V169.25H866.403V180.73C883.423 171.36 900.823 166.67 918.613 166.67C936.403 166.67 948.353 171.5 954.473 181.16C960.593 190.82 963.653 209.8 963.653 238.1V312.68H953.613V238.67C953.613 213.43 951.323 196.64 946.733 188.33C942.143 180.01 932.103 175.85 916.613 175.85C908.963 175.85 900.983 177.05 892.663 179.44C884.343 181.83 877.893 184.17 873.303 186.47L866.423 190.2V312.68H866.403Z" fill="white"/>
<path d="M1076.67 178.43H1024.46V253.59C1024.46 275.58 1026.04 289.88 1029.19 296.48C1032.34 303.08 1039.56 306.38 1050.85 306.38L1078.96 304.09L1079.82 313.27C1067.2 314.8 1057.54 315.56 1050.85 315.56C1037.27 315.56 1027.8 312.07 1022.45 305.09C1017.09 298.11 1014.42 284.58 1014.42 264.5V178.44H991.762V169.26H1014.42V122.5H1024.46V169.26H1076.67V178.43Z" fill="white"/>
<path d="M1196 304.07L1204.61 303.5L1205.18 312.68C1183.76 314.4 1166.07 315.26 1152.11 315.26C1131.84 315.07 1117.78 308.9 1109.94 296.76C1102.1 284.62 1098.18 266.02 1098.18 240.96C1098.18 191.43 1117.49 166.66 1156.13 166.66C1174.3 166.66 1187.92 172.11 1197.01 183.01C1206.09 193.91 1210.64 211.41 1210.64 235.51V244.98H1108.8C1108.8 265.63 1112.05 280.98 1118.55 291.02C1125.05 301.06 1135.86 306.08 1150.97 306.08C1166.07 306.08 1181.09 305.41 1196 304.07ZM1108.8 235.8H1200.02C1200.02 214.19 1196.53 198.79 1189.55 189.61C1182.57 180.43 1171.43 175.84 1156.13 175.84C1124.57 175.85 1108.8 195.83 1108.8 235.8Z" fill="white"/>
<path d="M1249.93 312.68V103.27H1259.97V312.68H1249.93Z" fill="white"/>
<path d="M1308.74 312.68V103.27H1318.78V312.68H1308.74Z" fill="white"/>
<path d="M1365.82 127.649V111.869H1375.86V127.649H1365.82ZM1365.82 312.679V169.249H1375.86V312.679H1365.82Z" fill="white"/>
<path d="M1533.06 335.919C1533.06 352.169 1528.23 363.789 1518.57 370.769C1508.91 377.749 1492.94 381.239 1470.66 381.239C1448.38 381.239 1433.56 378.039 1426.2 371.629C1418.84 365.219 1415.16 353.219 1415.16 335.629C1415.16 324.729 1418.79 316.019 1426.06 309.529C1428.74 307.049 1433.23 303.499 1439.54 298.909C1435.33 296.229 1433.23 290.019 1433.23 280.259C1433.23 277.579 1435.43 271.649 1439.83 262.469L1441.84 257.879C1425.39 252.529 1417.17 237.989 1417.17 214.279C1417.17 182.339 1433.52 166.369 1466.22 166.369C1476.16 166.369 1484.96 167.329 1492.61 169.239L1496.63 170.099L1536.79 169.239V179.279H1505.81C1513.46 186.359 1517.28 198.259 1517.28 214.989C1517.28 231.729 1513.12 243.629 1504.8 250.699C1496.48 257.779 1483.24 261.319 1465.07 261.319C1459.33 261.319 1454.17 260.939 1449.58 260.169C1445.18 271.069 1442.98 277.959 1442.98 280.819C1442.98 283.679 1443.17 285.889 1443.55 287.419C1443.93 288.949 1444.7 290.389 1445.84 291.719C1446.99 293.059 1449.18 293.919 1452.44 294.299C1458.37 295.259 1469.55 295.739 1486 295.739C1502.45 295.739 1514.4 298.369 1521.86 303.629C1529.33 308.909 1533.06 319.659 1533.06 335.919ZM1425.49 335.339C1425.49 349.489 1428.5 359.149 1434.53 364.309C1440.55 369.469 1452.79 372.049 1471.25 372.049C1489.7 372.049 1502.85 369.329 1510.69 363.869C1518.53 358.419 1522.45 349.139 1522.45 336.049C1522.45 322.949 1519.58 314.489 1513.84 310.659C1508.1 306.839 1497.39 304.919 1481.71 304.919L1447 304.059C1438.39 309.989 1432.66 315.009 1429.79 319.119C1426.92 323.239 1425.49 328.649 1425.49 335.339ZM1427.49 214.289C1427.49 228.439 1430.45 238.289 1436.38 243.839C1442.31 249.389 1452.49 252.159 1466.93 252.159C1481.37 252.159 1491.6 249.429 1497.62 243.979C1503.64 238.529 1506.66 228.629 1506.66 214.289C1506.66 199.949 1503.65 189.909 1497.62 184.169C1491.6 178.429 1481.36 175.559 1466.93 175.559C1452.49 175.559 1442.3 178.479 1436.38 184.309C1430.46 190.139 1427.49 200.139 1427.49 214.289Z" fill="white"/>
<path d="M1656.7 304.07L1665.31 303.5L1665.88 312.68C1644.46 314.4 1626.77 315.26 1612.81 315.26C1592.54 315.07 1578.48 308.9 1570.64 296.76C1562.8 284.62 1558.88 266.02 1558.88 240.96C1558.88 191.43 1578.19 166.66 1616.83 166.66C1635 166.66 1648.62 172.11 1657.71 183.01C1666.79 193.91 1671.34 211.41 1671.34 235.51V244.98H1569.5C1569.5 265.63 1572.75 280.98 1579.25 291.02C1585.75 301.06 1596.56 306.08 1611.67 306.08C1626.76 306.08 1641.78 305.41 1656.7 304.07ZM1569.49 235.8H1660.71C1660.71 214.19 1657.22 198.79 1650.24 189.61C1643.26 180.43 1632.12 175.84 1616.82 175.84C1585.27 175.85 1569.49 195.83 1569.49 235.8Z" fill="white"/>
<path d="M1718.95 312.68H1708.91V169.25H1718.95V180.73C1735.97 171.36 1753.37 166.67 1771.16 166.67C1788.95 166.67 1800.9 171.5 1807.02 181.16C1813.14 190.82 1816.2 209.8 1816.2 238.1V312.68H1806.16V238.67C1806.16 213.43 1803.87 196.64 1799.28 188.33C1794.69 180.01 1784.65 175.85 1769.16 175.85C1761.51 175.85 1753.53 177.05 1745.21 179.44C1736.89 181.83 1730.44 184.17 1725.85 186.47L1718.97 190.2V312.68H1718.95Z" fill="white"/>
<path d="M1913.44 175.85C1895.27 175.85 1882.7 180.44 1875.72 189.62C1868.74 198.8 1865.25 215.58 1865.25 239.96C1865.25 264.34 1868.41 281.46 1874.72 291.31C1881.03 301.16 1893.94 306.08 1913.45 306.08L1947.87 303.5L1948.44 312.68C1932.38 314.4 1920.71 315.26 1913.44 315.26C1890.11 315.26 1874.47 309.77 1866.54 298.77C1858.6 287.77 1854.63 268.27 1854.63 240.25C1854.63 212.24 1859.03 192.97 1867.83 182.45C1876.62 171.93 1891.83 166.67 1913.44 166.67L1947.86 169.54L1947.29 178.72C1931.99 176.81 1920.71 175.85 1913.44 175.85Z" fill="white"/>
<path d="M2072.65 304.07L2081.26 303.5L2081.83 312.68C2060.41 314.4 2042.72 315.26 2028.76 315.26C2008.49 315.07 1994.43 308.9 1986.59 296.76C1978.75 284.62 1974.83 266.02 1974.83 240.96C1974.83 191.43 1994.14 166.66 2032.78 166.66C2050.95 166.66 2064.57 172.11 2073.66 183.01C2082.74 193.91 2087.29 211.41 2087.29 235.51V244.98H1985.45C1985.45 265.63 1988.7 280.98 1995.2 291.02C2001.7 301.06 2012.51 306.08 2027.62 306.08C2042.71 306.08 2057.73 305.41 2072.65 304.07ZM1985.44 235.8H2076.66C2076.66 214.19 2073.17 198.79 2066.19 189.61C2059.21 180.43 2048.07 175.84 2032.77 175.84C2001.22 175.85 1985.44 195.83 1985.44 235.8Z" fill="white"/>
<path d="M505.963 126.939C496.493 116.899 481.433 111.879 460.783 111.879H387.633V121.629H397.963H404.363H460.783C477.803 121.629 490.133 125.889 497.793 134.399C505.443 142.909 509.263 155.959 509.263 173.559C509.263 210.659 493.103 229.209 460.783 229.209H404.363H397.963H387.633V312.689H397.963V238.969H460.783C500.373 238.969 520.163 217.169 520.163 173.569C520.163 152.519 515.433 136.979 505.963 126.939Z" fill="white"/>
<defs>
<linearGradient id="paint0_linear_1343_19" x1="96.835" y1="320.024" x2="197.72" y2="99.7238" gradientUnits="userSpaceOnUse">
<stop stop-color="#AE4CFB"/>
<stop offset="0.5479" stop-color="#00AEEF"/>
<stop offset="1" stop-color="#3AD77E"/>
</linearGradient>
<linearGradient id="paint1_linear_1343_19" x1="161.835" y1="349.791" x2="262.72" y2="129.49" gradientUnits="userSpaceOnUse">
<stop stop-color="#AE4CFB"/>
<stop offset="0.5479" stop-color="#00AEEF"/>
<stop offset="1" stop-color="#3AD77E"/>
</linearGradient>
<linearGradient id="paint2_linear_1343_19" x1="104.565" y1="323.565" x2="205.451" y2="103.264" gradientUnits="userSpaceOnUse">
<stop stop-color="#AE4CFB"/>
<stop offset="0.5479" stop-color="#00AEEF"/>
<stop offset="1" stop-color="#3AD77E"/>
</linearGradient>
</defs>
</svg>
