<svg width="173" height="173" viewBox="0 0 173 173" fill="none" xmlns="http://www.w3.org/2000/svg">
<path d="M36 40.3579H66C69.5899 40.3579 72.5 43.268 72.5 46.8579V76.8579C72.5 80.4477 69.5899 83.3579 66 83.3579H36C32.4101 83.3579 29.5 80.4477 29.5 76.8579V46.8579C29.5 43.268 32.4101 40.3579 36 40.3579ZM36 100.358H66C69.5899 100.358 72.5 103.268 72.5 106.858V136.858C72.5 140.448 69.5899 143.358 66 143.358H36C32.4101 143.358 29.5 140.448 29.5 136.858V106.858C29.5 103.268 32.4101 100.358 36 100.358ZM96 100.358H126C129.59 100.358 132.5 103.268 132.5 106.858V136.858C132.5 140.448 129.59 143.358 126 143.358H96C92.4101 143.358 89.5 140.448 89.5 136.858V106.858C89.5 103.268 92.4101 100.358 96 100.358ZM120.951 31.4038L142.165 52.617C144.703 55.1554 144.703 59.271 142.165 61.8094L120.951 83.0226C118.413 85.561 114.297 85.561 111.759 83.0226L90.5458 61.8094C88.0074 59.271 88.0074 55.1554 90.5458 52.617L111.759 31.4038C114.297 28.8654 118.413 28.8654 120.951 31.4038Z" stroke="white" stroke-width="7"/>
</svg>
