<svg width="173" height="173" viewBox="0 0 173 173" fill="none" xmlns="http://www.w3.org/2000/svg">
<path d="M123.952 53.5789H138.281C139.971 53.5772 141.591 52.905 142.787 51.7098C143.982 50.5146 144.654 48.8941 144.656 47.2039V32.875C144.654 31.1848 143.982 29.5642 142.787 28.3691C141.591 27.1739 139.971 26.5017 138.281 26.5H123.952C122.262 26.5017 120.641 27.1739 119.446 28.3691C118.251 29.5642 117.578 31.1848 117.577 32.875V37.9134H112.343C109.832 37.9162 107.424 38.9149 105.649 40.6905C103.873 42.4661 102.875 44.8735 102.872 47.3845V83.8899H82.0106V81.5333C82.0089 79.843 81.3367 78.2225 80.1416 77.0273C78.9464 75.8321 77.3259 75.1599 75.6356 75.1583H73.1919V66.2269H75.6356C77.3259 66.2252 78.9464 65.553 80.1416 64.3578C81.3367 63.1626 82.0089 61.5421 82.0106 59.8519V50.895C82.0089 49.2048 81.3367 47.5842 80.1416 46.3891C78.9464 45.1939 77.3259 44.5217 75.6356 44.52H33.6201C31.9299 44.5217 30.3094 45.1939 29.1142 46.3891C27.919 47.5842 27.2468 49.2048 27.2451 50.895V59.854C27.2468 61.5442 27.919 63.1648 29.1142 64.3599C30.3094 65.5551 31.9299 66.2273 33.6201 66.229H36.066V75.1604H33.6222C31.932 75.1621 30.3115 75.8343 29.1163 77.0294C27.9211 78.2246 27.2489 79.8451 27.2472 81.5354V90.4965C27.2489 92.1867 27.9211 93.8073 29.1163 95.0024C30.3115 96.1976 31.932 96.8698 33.6222 96.8715H36.066V105.803H33.6222C31.932 105.805 30.3115 106.477 29.1163 107.672C27.9211 108.867 27.2489 110.488 27.2472 112.178V121.139C27.2489 122.829 27.9211 124.45 29.1163 125.645C30.3115 126.84 31.932 127.512 33.6222 127.514H75.6356C77.3259 127.512 78.9464 126.84 80.1416 125.645C81.3367 124.45 82.0089 122.829 82.0106 121.139V112.178C82.0089 110.488 81.3367 108.867 80.1416 107.672C78.9464 106.477 77.3259 105.805 75.6356 105.803H73.1919V96.8715H75.6356C77.3259 96.8698 78.9464 96.1976 80.1416 95.0024C81.3367 93.8073 82.0089 92.1867 82.0106 90.4965V88.142H102.872V124.618C102.875 127.129 103.873 129.536 105.649 131.312C107.424 133.087 109.832 134.086 112.343 134.089H117.577V139.125C117.578 140.815 118.251 142.436 119.446 143.631C120.641 144.826 122.262 145.498 123.952 145.5H138.281C139.971 145.498 141.591 144.826 142.787 143.631C143.982 142.436 144.654 140.815 144.656 139.125V124.796C144.654 123.106 143.982 121.485 142.787 120.29C141.591 119.095 139.971 118.423 138.281 118.421H123.952C122.262 118.423 120.641 119.095 119.446 120.29C118.251 121.485 117.578 123.106 117.577 124.796V129.837H112.343C110.959 129.835 109.632 129.284 108.653 128.306C107.674 127.327 107.123 126 107.122 124.616V88.1399H117.577V93.1634C117.578 94.8536 118.251 96.4741 119.446 97.6693C120.641 98.8645 122.262 99.5367 123.952 99.5384H138.281C139.971 99.5367 141.591 98.8645 142.787 97.6693C143.982 96.4741 144.654 94.8536 144.656 93.1634V78.8387C144.654 77.1485 143.982 75.528 142.787 74.3328C141.591 73.1376 139.971 72.4654 138.281 72.4637H123.952C122.262 72.4654 120.641 73.1376 119.446 74.3328C118.251 75.528 117.578 77.1485 117.577 78.8387V83.892H107.122V47.3845C107.123 46.0003 107.674 44.6733 108.653 43.6945C109.632 42.7157 110.959 42.1651 112.343 42.1634H117.577V47.2039C117.578 48.8941 118.251 50.5146 119.446 51.7098C120.641 52.905 122.262 53.5772 123.952 53.5789ZM31.4951 59.8519V50.895C31.4957 50.3316 31.7197 49.7914 32.1181 49.393C32.5165 48.9946 33.0567 48.7706 33.6201 48.77H75.6356C76.199 48.7706 76.7392 48.9946 77.1376 49.393C77.536 49.7914 77.7601 50.3316 77.7606 50.895V59.854C77.7601 60.4174 77.536 60.9576 77.1376 61.356C76.7392 61.7544 76.199 61.9784 75.6356 61.979H33.6201C33.0567 61.9784 32.5165 61.7544 32.1181 61.356C31.7197 60.9576 31.4957 60.4153 31.4951 59.8519ZM40.316 66.2269H68.9397V75.1583H40.316V66.2269ZM77.7606 112.176V121.137C77.7601 121.7 77.536 122.24 77.1376 122.639C76.7392 123.037 76.199 123.261 75.6356 123.262H33.6201C33.0567 123.261 32.5165 123.037 32.1181 122.639C31.7197 122.24 31.4957 121.7 31.4951 121.137V112.176C31.4957 111.612 31.7197 111.072 32.1181 110.674C32.5165 110.275 33.0567 110.051 33.6201 110.051H75.6356C76.199 110.051 76.7392 110.275 77.1376 110.674C77.536 111.072 77.7601 111.612 77.7606 112.176ZM68.9419 105.801H40.3181V96.8694H68.9419V105.801ZM77.7606 90.4944C77.7601 91.0578 77.536 91.598 77.1376 91.9964C76.7392 92.3948 76.199 92.6188 75.6356 92.6194H33.6201C33.0567 92.6188 32.5165 92.3948 32.1181 91.9964C31.7197 91.598 31.4957 91.0578 31.4951 90.4944V81.5333C31.4957 80.9698 31.7197 80.4297 32.1181 80.0313C32.5165 79.6329 33.0567 79.4088 33.6201 79.4083H75.6356C76.199 79.4088 76.7392 79.6329 77.1376 80.0313C77.536 80.4297 77.7601 80.9698 77.7606 81.5333V90.4944ZM121.829 124.796C121.829 124.233 122.053 123.692 122.451 123.294C122.85 122.895 123.39 122.671 123.954 122.671H138.283C138.846 122.671 139.387 122.895 139.785 123.294C140.184 123.692 140.408 124.233 140.408 124.796V139.125C140.408 139.689 140.184 140.229 139.785 140.628C139.387 141.026 138.846 141.25 138.283 141.25H123.954C123.39 141.25 122.85 141.026 122.451 140.628C122.053 140.229 121.829 139.689 121.829 139.125V124.796ZM121.829 78.8366C121.829 78.273 122.053 77.7325 122.451 77.334C122.85 76.9355 123.39 76.7116 123.954 76.7116H138.283C138.846 76.7116 139.387 76.9355 139.785 77.334C140.184 77.7325 140.408 78.273 140.408 78.8366V93.1634C140.408 93.727 140.184 94.2675 139.785 94.666C139.387 95.0645 138.846 95.2884 138.283 95.2884H123.954C123.39 95.2884 122.85 95.0645 122.451 94.666C122.053 94.2675 121.829 93.727 121.829 93.1634V78.8366ZM121.829 32.875C121.829 32.3114 122.053 31.7709 122.451 31.3724C122.85 30.9739 123.39 30.75 123.954 30.75H138.283C138.846 30.75 139.387 30.9739 139.785 31.3724C140.184 31.7709 140.408 32.3114 140.408 32.875V47.2039C140.408 47.7675 140.184 48.308 139.785 48.7065C139.387 49.105 138.846 49.3289 138.283 49.3289H123.954C123.39 49.3289 122.85 49.105 122.451 48.7065C122.053 48.308 121.829 47.7675 121.829 47.2039V32.875Z" fill="white"/>
<path d="M40.9258 55.3723C40.9258 54.8087 40.7019 54.2682 40.3034 53.8697C39.9049 53.4712 39.3644 53.2473 38.8008 53.2473C38.2372 53.2473 37.6967 53.4712 37.2982 53.8697C36.8997 54.2682 36.6758 54.8087 36.6758 55.3723C36.6758 55.9359 36.8997 56.4764 37.2982 56.8749C37.6967 57.2734 38.2372 57.4973 38.8008 57.4973C39.3644 57.4973 39.9049 57.2734 40.3034 56.8749C40.7019 56.4764 40.9258 55.9359 40.9258 55.3723ZM56.5042 57.4973H72.5819C73.1455 57.4973 73.686 57.2734 74.0845 56.8749C74.483 56.4764 74.7069 55.9359 74.7069 55.3723C74.7069 54.8087 74.483 54.2682 74.0845 53.8697C73.686 53.4712 73.1455 53.2473 72.5819 53.2473H56.5042C55.9406 53.2473 55.4001 53.4712 55.0016 53.8697C54.603 54.2682 54.3792 54.8087 54.3792 55.3723C54.3792 55.9359 54.603 56.4764 55.0016 56.8749C55.4001 57.2734 55.9406 57.4973 56.5042 57.4973ZM38.8008 83.8898C38.2372 83.8898 37.6967 84.1137 37.2982 84.5122C36.8997 84.9107 36.6758 85.4512 36.6758 86.0148C36.6758 86.5784 36.8997 87.1189 37.2982 87.5174C37.6967 87.9159 38.2372 88.1398 38.8008 88.1398C39.3644 88.1398 39.9049 87.9159 40.3034 87.5174C40.7019 87.1189 40.9258 86.5784 40.9258 86.0148C40.9258 85.4512 40.7019 84.9107 40.3034 84.5122C39.9049 84.1137 39.3644 83.8898 38.8008 83.8898ZM72.5819 83.8898H56.5042C55.9406 83.8898 55.4001 84.1137 55.0016 84.5122C54.603 84.9107 54.3792 85.4512 54.3792 86.0148C54.3792 86.5784 54.603 87.1189 55.0016 87.5174C55.4001 87.9159 55.9406 88.1398 56.5042 88.1398H72.5819C73.1455 88.1398 73.686 87.9159 74.0845 87.5174C74.483 87.1189 74.7069 86.5784 74.7069 86.0148C74.7069 85.4512 74.483 84.9107 74.0845 84.5122C73.686 84.1137 73.1455 83.8898 72.5819 83.8898ZM38.8008 114.532C38.2372 114.532 37.6967 114.756 37.2982 115.155C36.8997 115.553 36.6758 116.094 36.6758 116.657C36.6758 117.221 36.8997 117.761 37.2982 118.16C37.6967 118.558 38.2372 118.782 38.8008 118.782C39.3644 118.782 39.9049 118.558 40.3034 118.16C40.7019 117.761 40.9258 117.221 40.9258 116.657C40.9258 116.094 40.7019 115.553 40.3034 115.155C39.9049 114.756 39.3644 114.532 38.8008 114.532ZM54.3792 116.657C54.3792 117.221 54.603 117.761 55.0016 118.16C55.4001 118.558 55.9406 118.782 56.5042 118.782H72.5819C73.1455 118.782 73.686 118.558 74.0845 118.16C74.483 117.761 74.7069 117.221 74.7069 116.657C74.7069 116.094 74.483 115.553 74.0845 115.155C73.686 114.756 73.1455 114.532 72.5819 114.532H56.5042C55.9406 114.532 55.4001 114.756 55.0016 115.155C54.603 115.553 54.3792 116.094 54.3792 116.657Z" fill="white"/>
</svg>
