<?xml version="1.0" encoding="UTF-8" standalone="no"?>
<!DOCTYPE svg PUBLIC "-//W3C//DTD SVG 1.1//EN" "http://www.w3.org/Graphics/SVG/1.1/DTD/svg11.dtd">
<svg xmlns="http://www.w3.org/2000/svg" version="1.1" viewBox="0.00 0.00 90.00 90.00">
<path fill="#fff" d="
  M 6.54 78.00
  A 0.57 0.57 0.0 0 1 5.97 77.43
  L 5.97 19.09
  A 7.19 7.15 -0.0 0 1 13.16 11.94
  L 76.84 11.94
  A 7.19 7.15 0.0 0 1 84.03 19.09
  L 84.03 77.43
  A 0.57 0.57 0.0 0 1 83.46 78.00
  L 6.54 78.00
  Z
  M 17.95 24.00
  A 2.95 2.95 0.0 0 0 15.00 21.05
  A 2.95 2.95 0.0 0 0 12.05 24.00
  A 2.95 2.95 0.0 0 0 15.00 26.95
  A 2.95 2.95 0.0 0 0 17.95 24.00
  Z
  M 29.96 24.00
  A 2.96 2.96 0.0 0 0 27.00 21.04
  A 2.96 2.96 0.0 0 0 24.04 24.00
  A 2.96 2.96 0.0 0 0 27.00 26.96
  A 2.96 2.96 0.0 0 0 29.96 24.00
  Z
  M 78.1433 22.1068
  A 0.99 0.99 0.0 0 0 77.1551 21.1151
  L 36.9951 21.0450
  A 0.99 0.99 0.0 0 0 36.0034 22.0332
  L 35.9967 25.8932
  A 0.99 0.99 0.0 0 0 36.9849 26.8849
  L 77.1449 26.9550
  A 0.99 0.99 0.0 0 0 78.1366 25.9668
  L 78.1433 22.1068
  Z
  M 17.02 52.26
  C 18.39 53.22 18.16 55.01 16.84 55.89
  Q 14.59 57.39 12.39 58.82
  Q 11.99 59.08 12.00 59.55
  L 12.00 71.38
  Q 12.00 72.00 12.62 72.00
  L 77.25 72.00
  A 0.76 0.76 0.0 0 0 78.01 71.24
  L 78.01 36.75
  A 0.76 0.75 -0.0 0 0 77.25 36.00
  L 12.76 36.00
  Q 12.01 36.00 12.00 36.75
  L 12.00 48.32
  A 1.11 1.09 -74.5 0 0 12.52 49.26
  Q 14.79 50.70 17.02 52.26
  Z"
/>
<path fill="#fff" d="
  M 51.44 43.33
  C 53.68 41.99 55.97 42.50 56.45 45.34
  Q 56.57 46.03 56.17 46.62
  Q 54.91 48.47 56.48 50.55
  Q 56.84 51.03 57.43 51.10
  C 60.85 51.52 60.79 56.15 57.23 56.95
  Q 56.75 57.06 56.47 57.46
  Q 54.95 59.69 56.11 61.27
  A 1.79 1.77 -61.2 0 1 56.45 62.46
  C 56.23 65.18 54.14 65.92 51.86 64.91
  A 3.02 2.92 18.0 0 0 47.72 66.94
  C 47.12 69.75 42.84 69.47 42.22 66.85
  A 2.94 2.90 -22.0 0 0 37.89 65.04
  C 35.37 66.52 32.49 63.60 33.95 61.15
  A 2.96 2.96 0.0 0 0 32.31 56.82
  C 29.51 55.93 29.15 51.91 32.05 51.28
  Q 34.13 50.83 34.41 48.16
  Q 34.47 47.61 34.13 47.18
  C 32.09 44.55 35.30 41.38 38.31 43.19
  Q 38.77 43.46 39.30 43.39
  Q 41.98 43.04 42.32 40.92
  A 1.78 1.77 75.8 0 1 42.99 39.79
  Q 45.01 38.28 47.04 39.83
  Q 47.57 40.24 47.66 40.90
  Q 47.94 42.91 50.68 43.46
  Q 51.09 43.54 51.44 43.33
  Z
  M 50.98 54.00
  A 5.98 5.98 0.0 0 0 45.00 48.02
  A 5.98 5.98 0.0 0 0 39.02 54.00
  A 5.98 5.98 0.0 0 0 45.00 59.98
  A 5.98 5.98 0.0 0 0 50.98 54.00
  Z"
/>
</svg>
