<svg width="173" height="173" viewBox="0 0 173 173" fill="none" xmlns="http://www.w3.org/2000/svg">
<path d="M116.689 131.504C120.863 131.504 124.265 128.156 124.265 124.05V120.952H138.118C139.336 120.952 140.331 119.973 140.331 118.774C140.331 117.575 139.336 116.596 138.118 116.596C137.295 116.596 136.625 115.936 136.625 115.127V99.8394C136.625 91.8059 131.689 84.8815 124.641 81.854V56.3946C124.641 56.3246 124.641 56.2647 124.641 56.2047C124.641 56.1947 124.641 56.1747 124.641 56.1648C124.641 56.0948 124.621 56.0249 124.611 55.9549C124.611 55.9349 124.601 55.915 124.59 55.895C124.58 55.845 124.57 55.795 124.55 55.7451C124.54 55.7151 124.529 55.6751 124.509 55.6452C124.499 55.6152 124.489 55.5752 124.469 55.5453C124.448 55.4953 124.428 55.4553 124.397 55.4054C124.397 55.3854 124.377 55.3654 124.367 55.3554C124.336 55.2955 124.296 55.2355 124.255 55.1756C124.255 55.1656 124.235 55.1556 124.225 55.1456C124.194 55.0956 124.154 55.0556 124.123 55.0057C124.123 55.0057 124.093 54.9657 124.072 54.9457C124.042 54.9158 124.012 54.8858 123.981 54.8558C123.951 54.8258 123.92 54.8058 123.9 54.7759C123.879 54.7559 123.849 54.7359 123.829 54.7159C123.798 54.6859 123.758 54.666 123.727 54.646C123.707 54.626 123.676 54.616 123.656 54.596C123.626 54.576 123.585 54.5561 123.554 54.5361C123.524 54.5161 123.504 54.5061 123.473 54.4861C123.443 54.4661 123.402 54.4561 123.372 54.4362C123.341 54.4262 123.311 54.4062 123.28 54.3962C123.25 54.3862 123.219 54.3762 123.179 54.3562C123.148 54.3462 123.108 54.3362 123.077 54.3162C123.047 54.3162 123.016 54.2963 122.976 54.2863C122.935 54.2863 122.905 54.2663 122.864 54.2563C122.823 54.2563 122.793 54.2463 122.752 54.2363C122.722 54.2363 122.681 54.2263 122.651 54.2263C122.6 54.2263 122.549 54.2263 122.498 54.2263C122.478 54.2263 122.458 54.2263 122.437 54.2263H51.5113C51.5113 54.2263 51.4605 54.2263 51.4402 54.2263C51.3894 54.2263 51.3488 54.2263 51.298 54.2263C51.2675 54.2263 51.2269 54.2263 51.1964 54.2363C51.1558 54.2363 51.1254 54.2363 51.0847 54.2563C51.0441 54.2563 51.0136 54.2763 50.973 54.2863C50.9426 54.2863 50.9121 54.3063 50.8715 54.3063C50.8308 54.3162 50.8004 54.3262 50.7699 54.3462C50.7394 54.3562 50.6988 54.3662 50.6684 54.3862C50.6379 54.3962 50.6074 54.4162 50.577 54.4262C50.5465 54.4461 50.5059 54.4561 50.4754 54.4761C50.4449 54.4861 50.4246 54.5061 50.3942 54.5161C50.3535 54.5361 50.3231 54.5561 50.2824 54.576C50.2621 54.596 50.2317 54.606 50.2114 54.626C50.1809 54.646 50.1403 54.676 50.1098 54.6959C50.0793 54.7159 50.059 54.7359 50.0387 54.7559C50.0083 54.7859 49.9778 54.8058 49.9575 54.8358C49.927 54.8658 49.8965 54.8958 49.8661 54.9258C49.8458 54.9457 49.8356 54.9657 49.8153 54.9757C49.7747 55.0257 49.7442 55.0756 49.7137 55.1256C49.7137 55.1356 49.6934 55.1456 49.6833 55.1556C49.6427 55.2155 49.602 55.2755 49.5716 55.3354C49.5716 55.3554 49.5513 55.3754 49.5411 55.3854C49.5208 55.4353 49.4903 55.4753 49.47 55.5253C49.4599 55.5552 49.4497 55.5952 49.4294 55.6252C49.4192 55.6552 49.3989 55.6951 49.3888 55.7251C49.3685 55.7751 49.3583 55.825 49.3481 55.875C49.3481 55.895 49.338 55.915 49.3278 55.9349C49.3177 56.0049 49.2974 56.0748 49.2974 56.1448C49.2974 56.1548 49.2974 56.1747 49.2974 56.1847C49.2974 56.2447 49.2974 56.3046 49.2974 56.3646V100.819C49.2974 102.018 50.2926 102.997 51.5113 102.997H96.7643V115.107C96.7643 115.916 96.094 116.576 95.2714 116.576C94.0527 116.576 93.0575 117.555 93.0575 118.754C93.0575 119.953 94.0527 120.932 95.2714 120.932H109.124V124.03C109.124 128.137 112.526 131.484 116.7 131.484L116.689 131.504ZM119.838 124.05C119.838 125.758 118.426 127.147 116.689 127.147C114.953 127.147 113.541 125.758 113.541 124.05V120.952H119.838V124.05ZM86.9642 82.8432L57.5843 58.5628H116.344L86.9642 82.8432ZM53.715 61.0608L85.5424 87.3595C85.5424 87.3595 85.5729 87.3795 85.5932 87.3995C85.6236 87.4195 85.644 87.4394 85.6744 87.4594C85.7151 87.4894 85.7455 87.5094 85.7861 87.5294C85.8065 87.5493 85.8369 87.5593 85.8572 87.5793C85.9182 87.6193 85.9791 87.6493 86.0502 87.6792C86.0502 87.6792 86.0603 87.6792 86.0705 87.6792C86.1314 87.7092 86.1924 87.7292 86.2533 87.7492C86.2736 87.7492 86.2939 87.7592 86.3142 87.7692C86.365 87.7892 86.4158 87.7992 86.4666 87.8091C86.4869 87.8091 86.5072 87.8091 86.5275 87.8191C86.5783 87.8291 86.6392 87.8391 86.69 87.8491C86.7103 87.8491 86.7306 87.8491 86.7509 87.8491C86.822 87.8491 86.8931 87.8591 86.9642 87.8591C87.0353 87.8591 87.1064 87.8591 87.1774 87.8491C87.1978 87.8491 87.2181 87.8491 87.2384 87.8491C87.2892 87.8491 87.3501 87.8291 87.4009 87.8191C87.4212 87.8191 87.4415 87.8191 87.4618 87.8091C87.5126 87.7992 87.5634 87.7792 87.6243 87.7692C87.6446 87.7692 87.6649 87.7592 87.6852 87.7492C87.7461 87.7292 87.8172 87.6992 87.8782 87.6792C87.8782 87.6792 87.8883 87.6792 87.8985 87.6792C87.9594 87.6493 88.0305 87.6193 88.0914 87.5793C88.1117 87.5693 88.1422 87.5494 88.1625 87.5394C88.2031 87.5194 88.2336 87.4894 88.2742 87.4694C88.3047 87.4494 88.325 87.4295 88.3555 87.4095C88.3758 87.3995 88.3859 87.3895 88.4063 87.3695L120.234 61.0708V80.545C119.086 80.3452 117.918 80.2353 116.71 80.2353C106.117 80.2353 97.4345 88.3987 96.815 98.6704H53.7353V61.0808L53.715 61.0608ZM101.182 115.117V99.8294C101.182 91.4162 108.138 84.5718 116.689 84.5718C125.24 84.5718 132.197 91.4162 132.197 99.8294V115.117C132.197 115.627 132.268 116.116 132.39 116.586H100.989C101.111 116.116 101.182 115.627 101.182 115.117Z" fill="white"/>
<path d="M94.5401 139.467C83.3386 139.467 74.2291 130.504 74.2291 119.483C74.2291 118.284 73.2338 117.305 72.0152 117.305C70.7965 117.305 69.8013 118.284 69.8013 119.483C69.8013 132.903 80.9012 143.824 94.5401 143.824C95.7588 143.824 96.754 142.845 96.754 141.645C96.754 140.446 95.7588 139.467 94.5401 139.467Z" fill="white"/>
<path d="M94.5401 128.846C89.2897 128.846 85.0142 124.639 85.0142 119.474C85.0142 118.275 84.019 117.295 82.8003 117.295C81.5817 117.295 80.5864 118.275 80.5864 119.474C80.5864 127.048 86.8422 133.203 94.5401 133.203C95.7588 133.203 96.754 132.223 96.754 131.024C96.754 129.825 95.7588 128.846 94.5401 128.846Z" fill="white"/>
<path d="M84.3035 47.4418V50.1596C84.3035 51.5785 85.4714 52.7176 86.9033 52.7176C88.3353 52.7176 89.5032 51.5685 89.5032 50.1596V47.4418C93.2912 46.3327 96.0535 42.8855 96.0535 38.7988C96.0535 33.8329 91.9405 29.7861 86.8932 29.7861C81.8459 29.7861 77.7329 33.8329 77.7329 38.7988C77.7329 42.8755 80.5054 46.3327 84.2832 47.4418H84.3035ZM86.9033 34.1526C89.5133 34.1526 91.6358 36.2409 91.6358 38.8088C91.6358 41.3768 89.5133 43.4651 86.9033 43.4651C84.2934 43.4651 82.1709 41.3768 82.1709 38.8088C82.1709 36.2409 84.2934 34.1526 86.9033 34.1526Z" fill="white"/>
<path d="M112.759 53.497C113.978 53.497 114.973 52.5178 114.973 51.3187V36.201H129.404C130.399 40.1178 134.005 43.0354 138.29 43.0354C143.338 43.0354 147.451 38.9887 147.451 34.0227C147.451 29.0567 143.338 25.01 138.29 25.01C134.005 25.01 130.399 27.9276 129.404 31.8445H112.759C111.541 31.8445 110.545 32.8237 110.545 34.0227V51.3187C110.545 52.5178 111.541 53.497 112.759 53.497ZM138.29 29.3665C140.9 29.3665 143.023 31.4548 143.023 34.0227C143.023 36.5906 140.9 38.679 138.29 38.679C135.68 38.679 133.558 36.5906 133.558 34.0227C133.558 31.4548 135.68 29.3665 138.29 29.3665Z" fill="white"/>
<path d="M35.506 43.0254C39.7916 43.0254 43.3968 40.1078 44.3921 36.1909H58.823V51.0489C58.823 52.2479 59.8183 53.2272 61.0369 53.2272C62.2556 53.2272 63.2509 52.2479 63.2509 51.0489V34.0127C63.2509 32.8137 62.2556 31.8345 61.0369 31.8345H44.3921C43.3968 27.9176 39.7916 25 35.506 25C30.4587 25 26.3457 29.0467 26.3457 34.0127C26.3457 38.9787 30.4587 43.0254 35.506 43.0254ZM35.506 29.3565C38.1159 29.3565 40.2385 31.4448 40.2385 34.0127C40.2385 36.5806 38.1159 38.6689 35.506 38.6689C32.896 38.6689 30.7735 36.5806 30.7735 34.0127C30.7735 31.4448 32.896 29.3565 35.506 29.3565Z" fill="white"/>
<path d="M61.0472 103.976C59.8285 103.976 58.8333 104.955 58.8333 106.154V135.84H44.4023C43.4071 131.923 39.8019 129.006 35.5162 129.006C30.4689 129.006 26.356 133.053 26.356 138.019C26.356 142.984 30.4689 147.031 35.5162 147.031C39.8019 147.031 43.4071 144.114 44.4023 140.197H61.0472C62.2659 140.197 63.2611 139.218 63.2611 138.019V106.154C63.2611 104.955 62.2659 103.976 61.0472 103.976ZM35.5162 142.675C32.9063 142.675 30.7838 140.586 30.7838 138.019C30.7838 135.451 32.9063 133.362 35.5162 133.362C38.1262 133.362 40.2487 135.451 40.2487 138.019C40.2487 140.586 38.1262 142.675 35.5162 142.675Z" fill="white"/>
<path d="M138.301 129.775C134.015 129.775 130.41 132.693 129.414 136.61H112.77C111.551 136.61 110.556 137.589 110.556 138.788C110.556 139.987 111.551 140.966 112.77 140.966H129.414C130.41 144.883 134.015 147.801 138.301 147.801C143.348 147.801 147.461 143.754 147.461 138.788C147.461 133.822 143.348 129.775 138.301 129.775ZM138.301 143.444C135.691 143.444 133.568 141.356 133.568 138.788C133.568 136.22 135.691 134.132 138.301 134.132C140.91 134.132 143.033 136.22 143.033 138.788C143.033 141.356 140.91 143.444 138.301 143.444Z" fill="white"/>
<path d="M33.1603 87.6992C37.4459 87.6992 41.0511 84.7816 42.0464 80.8648H46.0476C47.2663 80.8648 48.2615 79.8856 48.2615 78.6865C48.2615 77.4875 47.2663 76.5083 46.0476 76.5083H42.0464C41.0511 72.5915 37.4459 69.6738 33.1603 69.6738C28.113 69.6738 24 73.7206 24 78.6865C24 83.6525 28.113 87.6992 33.1603 87.6992ZM33.1603 74.0303C35.7702 74.0303 37.8927 76.1186 37.8927 78.6865C37.8927 81.2545 35.7702 83.3428 33.1603 83.3428C30.5503 83.3428 28.4278 81.2545 28.4278 78.6865C28.4278 76.1186 30.5503 74.0303 33.1603 74.0303Z" fill="white"/>
<path d="M141.205 69.6738C136.919 69.6738 133.314 72.5915 132.319 76.5083H128.317C127.099 76.5083 126.104 77.4875 126.104 78.6865C126.104 79.8856 127.099 80.8648 128.317 80.8648H132.319C133.314 84.7816 136.919 87.6992 141.205 87.6992C146.252 87.6992 150.365 83.6525 150.365 78.6865C150.365 73.7206 146.252 69.6738 141.205 69.6738ZM141.205 83.3428C138.595 83.3428 136.472 81.2545 136.472 78.6865C136.472 76.1186 138.595 74.0303 141.205 74.0303C143.815 74.0303 145.937 76.1186 145.937 78.6865C145.937 81.2545 143.815 83.3428 141.205 83.3428Z" fill="white"/>
</svg>
