<?xml version="1.0" encoding="UTF-8" standalone="no"?>
<!DOCTYPE svg PUBLIC "-//W3C//DTD SVG 1.1//EN" "http://www.w3.org/Graphics/SVG/1.1/DTD/svg11.dtd">
<svg xmlns="http://www.w3.org/2000/svg" version="1.1" viewBox="0.00 0.00 100.00 100.00">
<path fill="#fff" d="
  M 0.00 35.44
  L 0.00 32.80
  C 1.40 28.69 4.14 28.17 8.04 27.92
  Q 8.55 27.88 8.96 27.58
  C 10.73 26.25 12.17 23.30 13.20 21.39
  A 4.02 4.01 -84.9 0 1 15.48 19.48
  Q 17.77 18.73 20.18 17.75
  C 23.16 16.55 26.48 16.11 29.71 15.97
  C 32.13 15.86 33.86 18.09 32.27 20.26
  Q 30.41 22.79 29.49 25.87
  A 0.99 0.97 -57.2 0 0 29.68 26.78
  C 31.45 28.86 32.45 31.46 30.05 33.43
  Q 29.58 33.82 30.18 33.95
  Q 33.22 34.58 34.52 37.64
  C 35.11 39.02 34.86 41.07 33.23 41.62
  C 28.46 43.22 31.61 49.07 27.84 49.66
  Q 27.21 49.76 27.56 50.29
  Q 30.77 55.11 27.06 59.64
  Q 26.66 60.13 27.26 59.91
  C 30.58 58.69 37.35 63.96 39.07 65.74
  C 42.15 68.91 35.20 79.26 33.04 81.90
  C 31.16 84.18 32.27 86.68 32.87 89.12
  Q 33.01 89.73 32.74 90.29
  C 31.61 92.57 28.85 92.36 27.25 90.82
  Q 23.38 87.08 24.21 81.79
  Q 24.85 77.71 25.65 73.59
  Q 25.76 73.02 25.46 72.52
  C 23.93 69.96 22.74 62.66 26.27 60.48
  Q 26.70 60.22 26.22 60.06
  C 23.40 59.13 22.12 56.76 19.01 55.74
  A 2.97 2.97 0.0 0 1 16.96 53.03
  Q 16.85 50.54 14.73 49.54
  C 12.06 48.29 10.91 45.63 11.84 42.79
  A 1.40 1.37 39.1 0 0 11.71 41.64
  Q 10.27 39.28 7.75 37.85
  Q 7.29 37.59 6.86 37.88
  C 3.68 40.04 1.00 39.83 0.00 35.44
  Z
  M 4.59 34.58
  C 8.14 31.80 12.55 36.05 14.72 38.82
  C 15.97 40.44 16.32 42.24 15.68 44.17
  Q 15.26 45.44 16.51 46.01
  C 18.81 47.06 20.35 49.21 20.74 51.70
  Q 20.82 52.27 21.38 52.41
  Q 22.53 52.69 23.45 53.35
  Q 25.55 54.85 24.28 52.60
  Q 23.78 51.72 23.16 50.85
  C 21.63 48.71 22.58 45.89 25.48 45.82
  Q 26.05 45.80 26.13 45.24
  Q 26.76 40.93 30.00 38.65
  Q 30.57 38.25 29.90 38.08
  Q 25.83 37.06 25.23 33.16
  Q 24.95 31.31 26.71 30.36
  Q 27.20 30.10 26.82 29.69
  Q 23.91 26.51 27.18 21.08
  Q 27.71 20.19 26.69 20.31
  C 23.34 20.68 20.35 21.92 17.07 23.23
  A 1.34 1.32 3.0 0 0 16.38 23.84
  C 14.68 27.01 12.25 31.86 8.04 31.98
  Q 6.49 32.02 4.98 32.35
  A 1.18 1.17 0.8 0 0 4.11 33.19
  Q 3.96 33.77 4.05 34.37
  Q 4.14 34.93 4.59 34.58
  Z
  M 29.25 70.54
  Q 30.19 71.19 29.93 72.51
  Q 29.07 76.86 28.33 81.53
  Q 28.23 82.17 28.66 81.69
  Q 28.96 81.37 29.03 80.96
  Q 29.12 80.44 29.45 80.04
  Q 33.48 75.07 35.79 68.80
  A 0.87 0.86 -61.4 0 0 35.51 67.83
  Q 32.35 65.32 28.86 63.73
  A 0.42 0.41 -71.4 0 0 28.28 64.02
  C 27.90 65.77 27.72 69.50 29.25 70.54
  Z"
/>
<path fill="#fff" d="
  M 35.70 27.96
  C 32.23 28.24 30.60 25.42 32.72 22.54
  Q 36.25 17.73 44.02 18.06
  Q 47.07 18.19 47.70 21.05
  Q 49.03 27.06 45.07 31.61
  C 43.64 33.26 40.65 36.77 38.19 36.17
  C 35.21 35.44 35.97 30.97 36.43 28.79
  Q 36.62 27.88 35.70 27.96
  Z
  M 37.29 23.53
  Q 36.30 24.08 37.40 24.34
  Q 41.28 25.25 40.29 29.92
  Q 40.07 30.93 40.85 30.24
  Q 44.60 26.92 43.92 22.51
  A 0.48 0.48 0.0 0 0 43.46 22.10
  Q 40.10 21.99 37.29 23.53
  Z"
/>
<path fill="#fff" d="
  M 100.00 30.84
  L 100.00 32.28
  Q 97.99 35.96 93.92 37.69
  Q 93.49 37.87 93.02 37.84
  L 88.66 37.56
  A 1.08 1.08 0.0 0 0 87.53 38.88
  Q 88.79 44.40 83.50 47.11
  Q 83.00 47.37 83.01 47.93
  Q 83.08 51.06 80.67 52.76
  Q 80.21 53.08 80.40 53.61
  Q 81.22 55.83 80.28 57.93
  C 78.67 61.53 74.76 59.64 72.59 57.63
  Q 71.43 56.54 71.43 58.13
  C 71.42 59.62 69.75 60.29 68.58 59.80
  Q 66.44 58.92 65.59 56.11
  Q 65.33 55.24 64.58 55.75
  Q 63.53 56.46 62.23 56.48
  Q 61.37 56.50 62.02 57.06
  C 65.13 59.79 66.37 64.90 63.32 68.24
  Q 62.95 68.65 63.12 69.20
  A 0.34 0.34 0.0 0 0 63.79 69.12
  Q 63.86 67.89 64.95 67.72
  A 0.61 0.60 -11.7 0 1 65.63 68.16
  Q 66.68 72.09 64.65 75.56
  Q 64.34 76.08 63.76 76.24
  C 63.11 76.41 62.73 76.43 62.33 77.04
  Q 59.96 80.64 56.65 83.62
  Q 56.27 83.96 55.77 83.96
  Q 52.32 83.99 52.22 80.17
  Q 52.08 75.18 51.50 70.18
  Q 51.22 67.84 49.00 68.61
  C 45.92 69.67 42.98 68.68 42.32 65.30
  C 41.08 58.89 44.00 53.23 50.50 52.16
  Q 52.90 51.76 55.19 53.01
  Q 56.81 53.89 55.59 52.51
  Q 53.81 50.48 53.68 47.12
  A 0.65 0.65 0.0 0 0 52.57 46.69
  C 49.19 50.09 40.87 48.40 43.40 42.42
  Q 44.46 39.93 47.04 37.96
  Q 47.59 37.55 47.41 36.89
  Q 45.66 30.34 52.77 27.99
  Q 55.71 27.02 57.74 29.09
  A 0.69 0.69 0.0 0 0 58.59 29.20
  C 64.26 25.79 70.26 21.59 76.95 22.13
  Q 80.17 22.39 80.46 25.55
  Q 80.51 26.09 81.05 26.09
  Q 88.55 26.14 95.73 27.50
  Q 98.99 28.12 100.00 30.84
  Z
  M 56.30 33.32
  L 55.38 32.10
  Q 55.02 31.61 54.42 31.73
  Q 52.62 32.08 51.39 33.42
  A 1.25 1.24 65.3 0 0 51.05 34.35
  Q 51.12 35.79 51.71 37.16
  A 2.09 2.07 -30.6 0 1 51.07 39.62
  Q 48.80 41.41 47.27 43.55
  Q 46.85 44.15 47.50 44.49
  Q 47.84 44.66 48.25 44.61
  Q 49.18 44.49 49.81 43.80
  Q 52.92 40.42 56.48 44.34
  Q 57.57 45.54 57.67 47.30
  C 57.79 49.50 59.29 51.29 61.20 52.25
  Q 62.29 52.80 62.88 51.74
  Q 63.42 50.78 63.61 49.70
  C 63.99 47.50 66.89 47.46 67.52 49.59
  Q 68.01 51.25 68.45 52.85
  Q 68.66 53.61 69.20 53.03
  C 71.73 50.28 74.19 54.05 76.11 55.30
  Q 76.77 55.73 76.61 54.95
  C 76.28 53.37 74.47 52.43 75.83 50.69
  Q 76.14 50.29 76.63 50.18
  L 78.25 49.81
  Q 78.89 49.66 78.96 49.00
  L 79.29 45.82
  A 1.89 1.87 -5.1 0 1 80.65 44.21
  Q 85.06 42.98 83.29 38.48
  Q 83.08 37.95 83.28 37.42
  C 84.59 34.07 88.48 33.07 91.72 33.74
  Q 92.73 33.95 93.56 33.35
  L 94.99 32.32
  Q 96.05 31.55 94.76 31.34
  Q 86.07 29.91 77.34 30.02
  A 1.97 1.96 -81.4 0 1 75.45 27.45
  Q 75.59 27.03 75.84 26.65
  Q 76.35 25.90 75.45 26.00
  C 69.42 26.65 63.83 30.72 58.63 33.78
  A 1.78 1.78 0.0 0 1 56.30 33.32
  Z
  M 47.07 65.00
  C 56.09 61.67 56.19 71.83 56.05 77.42
  Q 56.02 78.48 56.76 77.71
  Q 58.48 75.92 59.75 73.68
  Q 60.04 73.18 59.88 72.62
  C 59.30 70.63 58.69 68.48 59.82 66.56
  C 65.47 56.99 43.62 50.04 46.23 64.52
  A 0.64 0.63 74.5 0 0 47.07 65.00
  Z"
/>
<path fill="#fff" d="
  M 88.17 64.23
  A 2.29 2.29 0.0 0 0 85.79 63.49
  L 82.10 64.53
  A 2.04 2.02 54.2 0 1 80.37 64.24
  Q 78.68 63.05 80.29 61.15
  A 2.50 2.49 -56.5 0 1 83.31 60.53
  Q 85.17 61.47 87.12 61.80
  C 89.88 62.28 91.74 64.74 92.51 67.20
  Q 92.71 67.86 92.04 67.94
  C 91.40 68.02 90.78 67.77 90.42 67.24
  Q 89.38 65.70 88.17 64.23
  Z"
/>
<path fill="#fff" d="
  M 84.68 82.00
  C 83.47 82.43 82.02 83.06 80.74 82.97
  C 75.22 82.58 75.32 76.55 78.56 73.40
  C 81.84 70.20 87.32 67.27 91.21 71.24
  C 94.51 74.61 96.07 79.97 93.02 84.04
  C 90.47 87.44 87.65 84.08 85.85 82.27
  A 1.12 1.11 57.9 0 0 84.68 82.00
  Z
  M 83.88 78.12
  C 86.13 77.23 87.97 78.57 89.40 80.13
  Q 90.67 81.50 90.65 79.64
  Q 90.62 75.97 87.57 73.41
  A 1.11 1.10 -33.3 0 0 86.53 73.20
  Q 82.65 74.42 80.61 77.28
  Q 79.21 79.25 81.58 78.79
  Q 82.73 78.57 83.88 78.12
  Z"
/>
</svg>
